<?xml version="1.0" encoding="UTF-8"?> <svg xmlns="http://www.w3.org/2000/svg" width="218" height="218" viewBox="0 0 218 218" fill="none"><path d="M41.7038 57.3294C42.4554 57.2459 43.7499 57.1206 45.5872 56.9536C47.5081 56.7865 49.6377 56.6613 51.9761 56.5777C54.398 56.4107 56.8617 56.2854 59.3671 56.2019C61.9561 56.1184 64.2527 56.0767 66.2571 56.0767C74.024 56.0767 80.4546 57.2041 85.549 59.459C90.6434 61.7139 94.6521 64.8457 97.5751 68.8544C100.582 72.7796 102.669 77.4564 103.839 82.8849C105.008 88.2298 105.592 94.0758 105.592 100.423C105.592 106.185 105.008 111.823 103.839 117.335C102.669 122.847 100.54 127.774 97.4498 132.117C94.4433 136.376 90.2258 139.842 84.7974 142.514C79.4524 145.103 72.5625 146.398 64.1275 146.398C62.7912 146.398 61.0792 146.356 58.9913 146.272C56.9035 146.189 54.7738 146.064 52.6024 145.897C50.4311 145.813 48.3432 145.688 46.3388 145.521C44.3345 145.437 42.7895 145.312 41.7038 145.145V57.3294ZM66.8835 71.3598C65.2967 71.3598 63.7517 71.4434 62.2484 71.6104C60.7451 71.6939 59.6177 71.7774 58.866 71.8609V130.613C59.2001 130.697 59.7012 130.781 60.3693 130.864C61.0374 130.864 61.7055 130.906 62.3737 130.989C63.1253 130.989 63.8352 131.031 64.5033 131.115C65.1714 131.115 65.7143 131.115 66.1318 131.115C70.9757 131.115 74.8173 130.238 77.6568 128.484C80.5799 126.647 82.7512 124.266 84.171 121.343C85.5907 118.42 86.5094 115.122 86.927 111.447C87.3445 107.772 87.5533 104.098 87.5533 100.423C87.5533 97.2494 87.3445 93.9506 86.927 90.5265C86.5929 87.1024 85.716 83.9706 84.2963 81.1311C82.96 78.2916 80.9139 75.9531 78.1579 74.1158C75.402 72.2785 71.6438 71.3598 66.8835 71.3598ZM148.261 127.356H153.022L165.173 82.3838H181.959L164.171 138.881C162.584 143.558 161.039 147.818 159.536 151.659C158.033 155.584 156.279 158.967 154.274 161.806C152.27 164.646 149.89 166.817 147.134 168.32C144.461 169.907 141.163 170.701 137.237 170.701C135.317 170.701 133.479 170.45 131.725 169.949C130.055 169.448 128.51 168.821 127.09 168.07C125.671 167.402 124.418 166.65 123.332 165.815C122.246 165.063 121.37 164.353 120.701 163.685L129.095 152.536C130.18 153.455 131.475 154.29 132.978 155.042C134.481 155.877 135.901 156.294 137.237 156.294C139.743 156.294 141.705 155.417 143.125 153.664C144.628 151.91 146.048 149.028 147.384 145.02H138.49L112.434 82.3838H130.097L148.261 127.356Z" fill="#0042FF"></path><path d="M32.5586 33.7823C32.5586 34.6857 32.3906 35.5576 32.0544 36.398C31.7393 37.2384 31.2665 37.9842 30.6362 38.6356C30.006 39.2869 29.2286 39.8121 28.3042 40.2113C27.3797 40.6105 26.3082 40.8101 25.0897 40.8101C23.9552 40.8101 22.9257 40.6315 22.0012 40.2743C21.0768 39.9171 20.2784 39.4129 19.6061 38.7616C18.9338 38.0893 18.4086 37.2699 18.0304 36.3035C17.6732 35.337 17.4947 34.255 17.4947 33.0575C17.4947 31.0826 17.7783 29.2127 18.3456 27.4479C18.9338 25.683 19.7427 24.1283 20.7722 22.7837C21.8227 21.4391 23.0622 20.3466 24.4909 19.5062C25.9406 18.6658 27.5268 18.1616 29.2496 17.9935L29.6908 20.0104C28.3672 20.1785 27.1486 20.5672 26.0351 21.1765C24.9426 21.7857 23.9867 22.5421 23.1673 23.4455C22.3479 24.3489 21.6756 25.3469 21.1504 26.4394C20.6461 27.5319 20.3205 28.6454 20.1734 29.7799C20.3415 29.5068 20.5831 29.2232 20.8982 28.9291C21.2344 28.6349 21.6231 28.3828 22.0643 28.1727C22.5265 27.9416 23.0307 27.7525 23.577 27.6054C24.1442 27.4584 24.7535 27.3848 25.4048 27.3848C26.5183 27.3848 27.5163 27.5424 28.3987 27.8576C29.2811 28.1517 30.027 28.5824 30.6362 29.1497C31.2665 29.6959 31.7393 30.3682 32.0544 31.1666C32.3906 31.9439 32.5586 32.8159 32.5586 33.7823ZM29.9744 34.0344C29.9744 32.5637 29.5648 31.4397 28.7454 30.6624C27.926 29.885 26.6654 29.4963 24.9636 29.4963C24.3543 29.4963 23.7871 29.5698 23.2618 29.7169C22.7366 29.864 22.2639 30.0636 21.8437 30.3157C21.4235 30.5468 21.0558 30.8199 20.7407 31.1351C20.4255 31.4502 20.1839 31.7654 20.0158 32.0805C19.9738 32.3746 19.9528 32.6058 19.9528 32.7738C19.9528 32.9419 19.9528 33.1415 19.9528 33.3726C19.9528 34.0029 20.0578 34.6437 20.2679 35.295C20.478 35.9253 20.7932 36.4926 21.2134 36.9968C21.6546 37.501 22.2008 37.9107 22.8521 38.2259C23.5034 38.541 24.2703 38.6986 25.1527 38.6986C25.867 38.6986 26.5183 38.5725 27.1066 38.3204C27.6949 38.0683 28.1991 37.7321 28.6193 37.3119C29.0605 36.8917 29.3967 36.398 29.6278 35.8308C29.8589 35.2635 29.9744 34.6647 29.9744 34.0344ZM51.4551 33.7823C51.4551 34.6857 51.287 35.5576 50.9509 36.398C50.6357 37.2384 50.163 37.9842 49.5327 38.6356C48.9024 39.2869 48.1251 39.8121 47.2006 40.2113C46.2762 40.6105 45.2047 40.8101 43.9861 40.8101C42.8516 40.8101 41.8221 40.6315 40.8977 40.2743C39.9733 39.9171 39.1749 39.4129 38.5026 38.7616C37.8303 38.0893 37.305 37.2699 36.9269 36.3035C36.5697 35.337 36.3911 34.255 36.3911 33.0575C36.3911 31.0826 36.6747 29.2127 37.242 27.4479C37.8303 25.683 38.6392 24.1283 39.6686 22.7837C40.7191 21.4391 41.9587 20.3466 43.3874 19.5062C44.837 18.6658 46.4233 18.1616 48.1461 17.9935L48.5873 20.0104C47.2637 20.1785 46.0451 20.5672 44.9316 21.1765C43.8391 21.7857 42.8831 22.5421 42.0637 23.4455C41.2444 24.3489 40.5721 25.3469 40.0468 26.4394C39.5426 27.5319 39.2169 28.6454 39.0699 29.7799C39.2379 29.5068 39.4795 29.2232 39.7947 28.9291C40.1308 28.6349 40.5195 28.3828 40.9607 28.1727C41.4229 27.9416 41.9272 27.7525 42.4734 27.6054C43.0407 27.4584 43.65 27.3848 44.3013 27.3848C45.4148 27.3848 46.4128 27.5424 47.2952 27.8576C48.1776 28.1517 48.9234 28.5824 49.5327 29.1497C50.163 29.6959 50.6357 30.3682 50.9509 31.1666C51.287 31.9439 51.4551 32.8159 51.4551 33.7823ZM48.8709 34.0344C48.8709 32.5637 48.4612 31.4397 47.6418 30.6624C46.8224 29.885 45.5619 29.4963 43.8601 29.4963C43.2508 29.4963 42.6835 29.5698 42.1583 29.7169C41.633 29.864 41.1603 30.0636 40.7401 30.3157C40.3199 30.5468 39.9523 30.8199 39.6371 31.1351C39.322 31.4502 39.0804 31.7654 38.9123 32.0805C38.8703 32.3746 38.8493 32.6058 38.8493 32.7738C38.8493 32.9419 38.8493 33.1415 38.8493 33.3726C38.8493 34.0029 38.9543 34.6437 39.1644 35.295C39.3745 35.9253 39.6896 36.4926 40.1098 36.9968C40.551 37.501 41.0973 37.9107 41.7486 38.2259C42.3999 38.541 43.1668 38.6986 44.0492 38.6986C44.7635 38.6986 45.4148 38.5725 46.0031 38.3204C46.5913 38.0683 47.0956 37.7321 47.5158 37.3119C47.957 36.8917 48.2931 36.398 48.5242 35.8308C48.7553 35.2635 48.8709 34.6647 48.8709 34.0344Z" fill="#9C9C9C"></path><path d="M18.1825 198.172H21.4093V187.361L18.1208 189.663L17.3193 188.491L21.8409 185.264H22.9919V198.172H26.1571V199.651H18.1825V198.172ZM38.9741 195.315C38.9741 195.904 38.8645 196.473 38.6453 197.021C38.4397 197.569 38.1314 198.055 37.7204 198.48C37.3093 198.905 36.8023 199.247 36.1995 199.508C35.5966 199.768 34.8978 199.898 34.103 199.898C33.3631 199.898 32.6917 199.782 32.0889 199.549C31.486 199.316 30.9653 198.987 30.5268 198.562C30.0884 198.124 29.7458 197.589 29.4992 196.959C29.2662 196.329 29.1498 195.623 29.1498 194.842C29.1498 193.554 29.3348 192.335 29.7047 191.184C30.0884 190.033 30.6159 189.019 31.2873 188.142C31.9724 187.265 32.7808 186.552 33.7125 186.004C34.658 185.456 35.6925 185.127 36.816 185.018L37.1038 186.333C36.2406 186.443 35.4458 186.696 34.7196 187.094C34.0071 187.491 33.3837 187.984 32.8493 188.573C32.3149 189.163 31.8765 189.813 31.5339 190.526C31.2051 191.238 30.9927 191.965 30.8968 192.705C31.0064 192.526 31.164 192.341 31.3695 192.15C31.5887 191.958 31.8422 191.793 32.13 191.656C32.4314 191.506 32.7603 191.382 33.1165 191.286C33.4865 191.191 33.8838 191.143 34.3086 191.143C35.0348 191.143 35.6856 191.245 36.2611 191.451C36.8366 191.643 37.323 191.924 37.7204 192.294C38.1314 192.65 38.4397 193.088 38.6453 193.609C38.8645 194.116 38.9741 194.685 38.9741 195.315ZM37.2888 195.479C37.2888 194.52 37.0216 193.787 36.4872 193.28C35.9528 192.773 35.1307 192.52 34.0208 192.52C33.6235 192.52 33.2535 192.568 32.911 192.663C32.5684 192.759 32.2601 192.89 31.9861 193.054C31.712 193.205 31.4723 193.383 31.2667 193.588C31.0612 193.794 30.9036 193.999 30.794 194.205C30.7666 194.397 30.7529 194.547 30.7529 194.657C30.7529 194.767 30.7529 194.897 30.7529 195.048C30.7529 195.459 30.8214 195.877 30.9584 196.301C31.0955 196.712 31.301 197.082 31.575 197.411C31.8628 197.74 32.219 198.007 32.6438 198.213C33.0685 198.418 33.5687 198.521 34.1442 198.521C34.61 198.521 35.0348 198.439 35.4184 198.274C35.8021 198.11 36.1309 197.891 36.405 197.617C36.6927 197.343 36.912 197.021 37.0627 196.651C37.2134 196.281 37.2888 195.89 37.2888 195.479ZM50.4963 188.902C50.4963 190.163 49.9003 191.567 48.7082 193.116C47.5161 194.664 45.8513 196.349 43.7138 198.172H50.9485V199.651H41.823V198.172C42.0833 197.925 42.4395 197.603 42.8917 197.206C43.3439 196.808 43.8303 196.37 44.351 195.89C44.8716 195.397 45.3992 194.869 45.9336 194.308C46.4816 193.746 46.9749 193.17 47.4134 192.581C47.8518 191.992 48.2081 191.403 48.4821 190.814C48.7562 190.225 48.8932 189.656 48.8932 189.108C48.8932 188.286 48.674 187.642 48.2355 187.176C47.8107 186.696 47.1667 186.456 46.3035 186.456C45.5636 186.456 44.9402 186.539 44.4332 186.703C43.9262 186.868 43.4672 187.107 43.0561 187.422L42.3573 186.292C42.9739 185.854 43.6248 185.532 44.3099 185.326C45.0087 185.121 45.7691 185.018 46.5912 185.018C47.8792 185.018 48.8521 185.367 49.5098 186.066C50.1675 186.765 50.4963 187.71 50.4963 188.902ZM57.3324 198.521C57.3324 198.083 57.4558 197.747 57.7024 197.514C57.949 197.267 58.2779 197.144 58.6889 197.144C59.1274 197.144 59.47 197.267 59.7166 197.514C59.9632 197.747 60.0865 198.083 60.0865 198.521C60.0865 198.918 59.9632 199.247 59.7166 199.508C59.47 199.768 59.1274 199.898 58.6889 199.898C58.2779 199.898 57.949 199.768 57.7024 199.508C57.4558 199.247 57.3324 198.918 57.3324 198.521ZM70.1289 198.459C70.6496 198.459 71.1292 198.398 71.5676 198.274C72.0061 198.137 72.3761 197.939 72.6775 197.678C72.9927 197.404 73.2324 197.069 73.3969 196.671C73.575 196.274 73.6641 195.808 73.6641 195.274C73.6641 194.287 73.3078 193.54 72.5953 193.033C71.8965 192.513 70.9374 192.252 69.7179 192.252L67.7859 192.355V185.264H74.8356V186.744H69.3274V190.916L70.355 190.875C71.8759 190.875 73.0749 191.245 73.9518 191.985C74.8287 192.725 75.2672 193.78 75.2672 195.15C75.2672 195.918 75.1302 196.596 74.8561 197.185C74.5958 197.774 74.2327 198.274 73.7668 198.685C73.301 199.083 72.746 199.384 72.102 199.59C71.4717 199.795 70.7798 199.898 70.0262 199.898C69.6151 199.898 69.2246 199.864 68.8547 199.795C68.4847 199.741 68.149 199.672 67.8476 199.59C67.5461 199.494 67.2789 199.398 67.046 199.302C66.8268 199.192 66.6692 199.097 66.5733 199.014L67.231 197.678C67.4639 197.815 67.8201 197.98 68.2997 198.172C68.7793 198.364 69.389 198.459 70.1289 198.459ZM78.3216 192.458C78.3216 191.293 78.4243 190.252 78.6299 189.334C78.8354 188.402 79.1437 187.621 79.5547 186.991C79.9658 186.347 80.4865 185.86 81.1168 185.532C81.7471 185.189 82.4938 185.018 83.357 185.018C84.2751 185.018 85.0492 185.182 85.6795 185.511C86.3235 185.84 86.8442 186.319 87.2416 186.95C87.6389 187.58 87.9267 188.361 88.1048 189.293C88.2829 190.211 88.372 191.266 88.372 192.458C88.372 193.623 88.2692 194.671 88.0637 195.603C87.8582 196.521 87.5499 197.302 87.1388 197.946C86.7277 198.576 86.2071 199.062 85.5768 199.405C84.9465 199.734 84.1997 199.898 83.3365 199.898C82.4322 199.898 81.658 199.72 81.014 199.364C80.3837 198.994 79.863 198.48 79.452 197.822C79.0546 197.165 78.7669 196.384 78.5887 195.479C78.4106 194.561 78.3216 193.554 78.3216 192.458ZM86.6866 192.458C86.6866 191.732 86.6455 191.04 86.5633 190.382L80.4591 195.952C80.692 196.733 81.0414 197.356 81.5073 197.822C81.9731 198.288 82.5829 198.521 83.3365 198.521C84.5423 198.521 85.3986 198.021 85.9056 197.021C86.4263 196.02 86.6866 194.5 86.6866 192.458ZM80.0275 192.458C80.0275 192.8 80.0343 193.129 80.048 193.444C80.0754 193.76 80.1028 194.068 80.1302 194.369L86.255 188.82C86.0221 188.08 85.6727 187.491 85.2068 187.052C84.7547 186.614 84.1381 186.395 83.357 186.395C82.1376 186.395 81.2743 186.902 80.7674 187.916C80.2741 188.916 80.0275 190.43 80.0275 192.458Z" fill="#9C9C9C"></path><path d="M17.8028 174.358V162.848H22.8342C24.0838 162.848 25.1799 163.09 26.1226 163.572C27.0653 164.054 27.7998 164.723 28.3259 165.578C28.8521 166.433 29.1152 167.441 29.1152 168.603C29.1152 169.754 28.8521 170.763 28.3259 171.629C27.7998 172.484 27.0653 173.152 26.1226 173.635C25.1799 174.117 24.0838 174.358 22.8342 174.358H17.8028ZM19.9403 172.549H22.7355C23.6015 172.549 24.3469 172.385 24.9717 172.056C25.6075 171.727 26.0952 171.267 26.4351 170.675C26.7858 170.083 26.9612 169.393 26.9612 168.603C26.9612 167.803 26.7858 167.113 26.4351 166.532C26.0952 165.94 25.6075 165.479 24.9717 165.15C24.3469 164.822 23.6015 164.657 22.7355 164.657H19.9403V172.549ZM31.9132 177.663C31.4857 177.663 31.0582 177.592 30.6307 177.449C30.2032 177.307 29.8469 177.11 29.5619 176.857L30.3841 175.345C30.5923 175.531 30.828 175.679 31.0911 175.789C31.3542 175.898 31.6227 175.953 31.8968 175.953C32.2695 175.953 32.5709 175.86 32.8011 175.674C33.0313 175.487 33.245 175.175 33.4423 174.736L33.9521 173.585L34.1165 173.339L37.4378 165.578H39.4109L35.3003 175.065C35.0263 175.723 34.7194 176.244 34.3796 176.627C34.0507 177.011 33.678 177.279 33.2615 177.433C32.8559 177.586 32.4065 177.663 31.9132 177.663ZM33.7219 174.671L29.7592 165.578H31.8968L35.1195 173.158L33.7219 174.671ZM43.2961 174.473C42.5617 174.473 41.8546 174.38 41.175 174.194C40.5064 173.996 39.9747 173.761 39.5801 173.487L40.3693 171.925C40.764 172.177 41.2353 172.385 41.7834 172.549C42.3315 172.714 42.8796 172.796 43.4276 172.796C44.0744 172.796 44.5402 172.708 44.8252 172.533C45.1212 172.358 45.2692 172.122 45.2692 171.826C45.2692 171.585 45.1705 171.404 44.9732 171.283C44.7759 171.152 44.5183 171.053 44.2004 170.987C43.8825 170.922 43.5263 170.861 43.1317 170.807C42.748 170.752 42.3589 170.681 41.9643 170.593C41.5806 170.494 41.2298 170.357 40.9119 170.182C40.5941 169.995 40.3365 169.749 40.1392 169.442C39.9418 169.135 39.8432 168.729 39.8432 168.225C39.8432 167.666 40.0021 167.184 40.32 166.778C40.6379 166.362 41.0819 166.044 41.6519 165.825C42.2328 165.594 42.9179 165.479 43.7072 165.479C44.2991 165.479 44.8965 165.545 45.4994 165.677C46.1023 165.808 46.601 165.994 46.9956 166.236L46.2064 167.798C45.7899 167.546 45.3678 167.376 44.9403 167.288C44.5238 167.189 44.1073 167.14 43.6907 167.14C43.0659 167.14 42.6 167.233 42.2931 167.419C41.9971 167.606 41.8492 167.841 41.8492 168.126C41.8492 168.39 41.9478 168.587 42.1451 168.718C42.3424 168.85 42.6 168.954 42.9179 169.031C43.2358 169.108 43.5866 169.173 43.9702 169.228C44.3649 169.272 44.754 169.343 45.1376 169.442C45.5213 169.541 45.8721 169.678 46.19 169.853C46.5188 170.017 46.7819 170.253 46.9792 170.56C47.1765 170.867 47.2752 171.267 47.2752 171.76C47.2752 172.308 47.1107 172.785 46.7819 173.191C46.464 173.596 46.0091 173.914 45.4172 174.144C44.8252 174.364 44.1182 174.473 43.2961 174.473ZM53.9121 174.473C53.1996 174.473 52.5474 174.309 51.9555 173.98C51.3745 173.651 50.9086 173.158 50.5579 172.5C50.218 171.832 50.0481 170.987 50.0481 169.968C50.0481 168.938 50.2126 168.094 50.5414 167.436C50.8812 166.778 51.3416 166.29 51.9226 165.973C52.5035 165.644 53.1667 165.479 53.9121 165.479C54.7781 165.479 55.5399 165.666 56.1976 166.038C56.8663 166.411 57.3924 166.932 57.7761 167.6C58.1707 168.269 58.368 169.058 58.368 169.968C58.368 170.878 58.1707 171.673 57.7761 172.352C57.3924 173.021 56.8663 173.542 56.1976 173.914C55.5399 174.287 54.7781 174.473 53.9121 174.473ZM49.0452 177.548V165.578H51.0018V167.65L50.936 169.984L51.1005 172.319V177.548H49.0452ZM53.6819 172.714C54.1752 172.714 54.6137 172.604 54.9973 172.385C55.3919 172.166 55.7043 171.848 55.9345 171.431C56.1647 171.015 56.2798 170.527 56.2798 169.968C56.2798 169.398 56.1647 168.91 55.9345 168.505C55.7043 168.088 55.3919 167.77 54.9973 167.551C54.6137 167.332 54.1752 167.222 53.6819 167.222C53.1886 167.222 52.7447 167.332 52.3501 167.551C51.9555 167.77 51.6431 168.088 51.4129 168.505C51.1827 168.91 51.0676 169.398 51.0676 169.968C51.0676 170.527 51.1827 171.015 51.4129 171.431C51.6431 171.848 51.9555 172.166 52.3501 172.385C52.7447 172.604 53.1886 172.714 53.6819 172.714ZM60.3172 174.358V165.578H62.2738V167.995L62.0436 167.288C62.3067 166.696 62.7178 166.247 63.2768 165.94C63.8468 165.633 64.5539 165.479 65.3979 165.479V167.436C65.3102 167.414 65.228 167.403 65.1513 167.403C65.0745 167.392 64.9978 167.387 64.9211 167.387C64.1428 167.387 63.5235 167.617 63.0631 168.077C62.6027 168.527 62.3725 169.201 62.3725 170.1V174.358H60.3172ZM71.0073 174.473C70.1085 174.473 69.3083 174.281 68.6067 173.898C67.9052 173.503 67.3516 172.966 66.9461 172.286C66.5405 171.607 66.3377 170.834 66.3377 169.968C66.3377 169.091 66.5405 168.318 66.9461 167.65C67.3516 166.97 67.9052 166.438 68.6067 166.055C69.3083 165.671 70.1085 165.479 71.0073 165.479C71.9171 165.479 72.7228 165.671 73.4244 166.055C74.1369 166.438 74.6904 166.965 75.085 167.633C75.4906 168.302 75.6934 169.08 75.6934 169.968C75.6934 170.834 75.4906 171.607 75.085 172.286C74.6904 172.966 74.1369 173.503 73.4244 173.898C72.7228 174.281 71.9171 174.473 71.0073 174.473ZM71.0073 172.714C71.5116 172.714 71.961 172.604 72.3556 172.385C72.7502 172.166 73.0572 171.848 73.2764 171.431C73.5066 171.015 73.6217 170.527 73.6217 169.968C73.6217 169.398 73.5066 168.91 73.2764 168.505C73.0572 168.088 72.7502 167.77 72.3556 167.551C71.961 167.332 71.517 167.222 71.0238 167.222C70.5195 167.222 70.0701 167.332 69.6755 167.551C69.2918 167.77 68.9849 168.088 68.7547 168.505C68.5245 168.91 68.4094 169.398 68.4094 169.968C68.4094 170.527 68.5245 171.015 68.7547 171.431C68.9849 171.848 69.2918 172.166 69.6755 172.385C70.0701 172.604 70.5141 172.714 71.0073 172.714ZM80.3718 174.473C79.6374 174.473 78.9303 174.38 78.2507 174.194C77.5821 173.996 77.0504 173.761 76.6558 173.487L77.445 171.925C77.8397 172.177 78.311 172.385 78.8591 172.549C79.4072 172.714 79.9553 172.796 80.5033 172.796C81.1501 172.796 81.6159 172.708 81.9009 172.533C82.1969 172.358 82.3449 172.122 82.3449 171.826C82.3449 171.585 82.2462 171.404 82.0489 171.283C81.8516 171.152 81.594 171.053 81.2761 170.987C80.9582 170.922 80.602 170.861 80.2074 170.807C79.8237 170.752 79.4346 170.681 79.04 170.593C78.6563 170.494 78.3055 170.357 77.9876 170.182C77.6698 169.995 77.4122 169.749 77.2149 169.442C77.0175 169.135 76.9189 168.729 76.9189 168.225C76.9189 167.666 77.0778 167.184 77.3957 166.778C77.7136 166.362 78.1576 166.044 78.7276 165.825C79.3085 165.594 79.9936 165.479 80.7829 165.479C81.3748 165.479 81.9722 165.545 82.5751 165.677C83.178 165.808 83.6767 165.994 84.0713 166.236L83.2821 167.798C82.8656 167.546 82.4435 167.376 82.016 167.288C81.5995 167.189 81.183 167.14 80.7664 167.14C80.1416 167.14 79.6757 167.233 79.3688 167.419C79.0728 167.606 78.9249 167.841 78.9249 168.126C78.9249 168.39 79.0235 168.587 79.2208 168.718C79.4181 168.85 79.6757 168.954 79.9936 169.031C80.3115 169.108 80.6623 169.173 81.0459 169.228C81.4406 169.272 81.8297 169.343 82.2133 169.442C82.597 169.541 82.9478 169.678 83.2657 169.853C83.5945 170.017 83.8576 170.253 84.0549 170.56C84.2522 170.867 84.3509 171.267 84.3509 171.76C84.3509 172.308 84.1864 172.785 83.8576 173.191C83.5397 173.596 83.0848 173.914 82.4929 174.144C81.9009 174.364 81.1939 174.473 80.3718 174.473ZM86.1209 174.358V165.578H88.1762V174.358H86.1209ZM87.1567 164.131C86.7731 164.131 86.4552 164.01 86.2031 163.769C85.9619 163.528 85.8413 163.238 85.8413 162.898C85.8413 162.547 85.9619 162.257 86.2031 162.026C86.4552 161.785 86.7731 161.665 87.1567 161.665C87.5404 161.665 87.8528 161.78 88.0939 162.01C88.3461 162.229 88.4721 162.509 88.4721 162.848C88.4721 163.21 88.3515 163.517 88.1104 163.769C87.8692 164.01 87.5513 164.131 87.1567 164.131ZM94.5897 174.473C93.8443 174.473 93.1866 174.336 92.6166 174.062C92.0466 173.777 91.6027 173.35 91.2848 172.78C90.9669 172.199 90.808 171.47 90.808 170.593V165.578H92.8633V170.313C92.8633 171.103 93.0387 171.694 93.3894 172.089C93.7512 172.473 94.2609 172.665 94.9186 172.665C95.4009 172.665 95.8174 172.566 96.1682 172.369C96.5299 172.171 96.8094 171.875 97.0068 171.481C97.215 171.086 97.3192 170.598 97.3192 170.017V165.578H99.3745V174.358H97.4178V171.99L97.7631 172.714C97.4671 173.284 97.0342 173.722 96.4642 174.029C95.8942 174.325 95.2693 174.473 94.5897 174.473ZM113.148 165.479C113.849 165.479 114.469 165.616 115.006 165.89C115.554 166.164 115.981 166.586 116.288 167.156C116.595 167.715 116.749 168.439 116.749 169.327V174.358H114.693V169.59C114.693 168.812 114.523 168.231 114.184 167.847C113.844 167.463 113.356 167.271 112.72 167.271C112.271 167.271 111.871 167.37 111.52 167.567C111.18 167.765 110.912 168.055 110.714 168.439C110.528 168.823 110.435 169.31 110.435 169.902V174.358H108.379V169.59C108.379 168.812 108.209 168.231 107.87 167.847C107.53 167.463 107.042 167.271 106.406 167.271C105.957 167.271 105.557 167.37 105.206 167.567C104.866 167.765 104.598 168.055 104.4 168.439C104.214 168.823 104.121 169.31 104.121 169.902V174.358H102.065V165.578H104.022V167.913L103.677 167.222C103.973 166.652 104.4 166.219 104.959 165.923C105.529 165.627 106.176 165.479 106.9 165.479C107.722 165.479 108.434 165.682 109.037 166.088C109.651 166.493 110.057 167.107 110.254 167.929L109.448 167.65C109.733 166.992 110.204 166.466 110.862 166.071C111.52 165.677 112.282 165.479 113.148 165.479Z" fill="#9C9C9C"></path><rect x="2.5553" y="2.15528" width="213.066" height="213.066" stroke="#0042FF" stroke-width="4.1106"></rect></svg> 