<?xml version="1.0" encoding="UTF-8"?> <svg xmlns="http://www.w3.org/2000/svg" width="117" height="49" viewBox="0 0 117 49" fill="none"><path d="M9.13342 9.42767H0.878948L1.14645 9.88625C1.49039 10.4977 1.94897 11.6824 1.94897 12.4849V30.9428C1.94897 31.86 1.60504 32.8918 0.878948 34H8.94234C13.3753 34 17.0439 32.6625 19.0694 30.8664C20.1012 29.9874 20.9419 28.9556 21.5915 27.8091C22.9673 25.478 23.3112 23.5673 23.3112 21.7329C23.3112 19.8604 23.0055 17.9496 21.668 15.6567C21.0183 14.4721 20.2158 13.4403 19.184 12.5613C17.1968 10.7652 13.5664 9.42767 9.13342 9.42767ZM8.94234 33.1211C7.5666 33.1211 6.87872 32.395 6.87872 30.9428V10.3066H9.13342C11.8849 10.3066 14.0632 11.3384 15.6682 13.402C17.3115 15.4274 18.114 18.2172 18.114 21.7329C18.114 25.0959 17.3115 27.8474 15.6682 29.9492C14.025 32.051 11.8085 33.1211 8.94234 33.1211ZM50.919 12.4849C51.6451 11.2238 52.3711 10.192 53.0972 9.42767H50.1547L50.2693 9.84804C50.4222 10.4595 50.384 11.6059 49.8872 12.4849L44.1931 22.3444L38.6137 12.4849C38.0405 11.5295 37.8112 10.4977 37.9258 9.42767H31.1618L31.5439 9.88625C32.0407 10.4977 32.8814 11.6824 33.34 12.4849L39.7984 23.7966V30.9428C39.7984 31.86 39.4162 32.8918 38.6901 34H45.8364L45.5689 33.5414C45.2249 32.93 44.7281 31.7453 44.7281 30.9428V23.2233L50.919 12.4849ZM82.2076 9.42767L82.4369 9.88625C82.7808 10.4977 83.2012 11.6824 83.2012 12.4849V29.4142L68.8323 9.42767H63.5204L63.7879 9.88625C64.2083 10.4977 64.6669 11.6824 64.6669 12.4849V30.9428C64.6669 31.86 64.3229 32.8918 63.6733 34H66.5394L66.3101 33.5414C65.9662 32.93 65.5458 31.7453 65.5458 30.9428V12.4849C65.5458 12.2938 65.5458 12.1409 65.584 12.0263L81.4051 34H84.0802V12.4849C84.0802 11.5677 84.4241 10.5359 85.0737 9.42767H82.2076ZM97.8713 12.4849V30.9428C97.8713 31.86 97.4892 32.8918 96.7631 34H114.877L115.221 30.4078L115.068 30.7135C114.762 31.4014 113.31 33.1211 110.368 33.1211H104.215C103.26 33.1211 102.763 32.051 102.763 30.9428V19.8222H108.037C109.221 19.8222 110.215 20.2426 111.094 21.0451V17.7968L110.712 18.1025C110.215 18.4464 109.068 18.9432 108.037 18.9432H102.763V10.3066H110.482C111.132 10.3066 111.743 10.4977 112.317 10.9181C113.501 11.7206 113.654 12.2174 113.807 12.5231L113.54 9.19838L113.157 9.2366C112.661 9.35124 111.514 9.42767 110.482 9.42767H96.7631L97.0306 9.88625C97.451 10.4977 97.8713 11.6824 97.8713 12.4849Z" fill="white"></path></svg> 