<?xml version="1.0" encoding="UTF-8"?> <svg xmlns="http://www.w3.org/2000/svg" width="509" height="252" viewBox="0 0 509 252" fill="none"><path d="M40.1164 45.0097H4.04134L5.21044 47.0139C6.71357 49.6861 8.71774 54.8636 8.71774 58.3709V139.039C8.71774 143.047 7.21461 147.556 4.04134 152.4H39.2814C58.655 152.4 74.6884 146.554 83.5401 138.705C88.0495 134.863 91.7238 130.354 94.5631 125.344C100.576 115.156 102.079 106.805 102.079 98.7883C102.079 90.6046 100.743 82.2539 94.8971 72.233C92.0579 67.0556 88.5506 62.5462 84.0412 58.7049C75.3564 50.8552 59.4901 45.0097 40.1164 45.0097ZM39.2814 148.559C33.2688 148.559 30.2626 145.385 30.2626 139.039V48.851H40.1164C52.1415 48.851 61.6613 53.3604 68.6759 62.3792C75.8575 71.231 79.3648 83.423 79.3648 98.7883C79.3648 113.486 75.8575 125.511 68.6759 134.696C61.4943 143.882 51.8074 148.559 39.2814 148.559ZM222.735 58.3709C225.908 52.8594 229.081 48.35 232.255 45.0097H219.395L219.896 46.8469C220.564 49.5191 220.397 54.5295 218.225 58.3709L193.34 101.461L168.956 58.3709C166.451 54.1955 165.449 49.6861 165.95 45.0097H136.388L138.059 47.0139C140.23 49.6861 143.904 54.8636 145.908 58.3709L174.134 107.807V139.039C174.134 143.047 172.463 147.556 169.29 152.4H200.522L199.353 150.396C197.85 147.724 195.678 142.546 195.678 139.039V105.302L222.735 58.3709ZM359.478 45.0097L360.48 47.0139C361.983 49.6861 363.82 54.8636 363.82 58.3709V132.358L301.023 45.0097H277.808L278.977 47.0139C280.814 49.6861 282.818 54.8636 282.818 58.3709V139.039C282.818 143.047 281.315 147.556 278.476 152.4H291.002L290 150.396C288.497 147.724 286.66 142.546 286.66 139.039V58.3709C286.66 57.5358 286.66 56.8677 286.827 56.3667L355.97 152.4H367.661V58.3709C367.661 54.3625 369.165 49.8531 372.004 45.0097H359.478ZM427.934 58.3709V139.039C427.934 143.047 426.264 147.556 423.091 152.4H502.255L503.759 136.701L503.09 138.037C501.754 141.043 495.408 148.559 482.548 148.559H455.658C451.483 148.559 449.312 143.882 449.312 139.039V90.4376H472.36C477.537 90.4376 481.88 92.2748 485.721 95.7821V81.5858L484.051 82.922C481.88 84.4251 476.869 86.5963 472.36 86.5963H449.312V48.851H483.049C485.888 48.851 488.56 49.6861 491.065 51.5233C496.243 55.0306 496.911 57.2018 497.579 58.5379L496.41 44.0076L494.74 44.1746C492.569 44.6757 487.558 45.0097 483.049 45.0097H423.091L424.26 47.0139C426.097 49.6861 427.934 54.8636 427.934 58.3709Z" fill="white"></path><path d="M2.86652 206.7L13.4859 183.25H16.8023L27.4551 206.7H23.9377L14.4573 185.126H15.7973L6.31697 206.7H2.86652ZM7.38895 200.838L8.29344 198.158H21.4922L22.4637 200.838H7.38895ZM46.162 206.968C44.3753 206.968 42.6668 206.7 41.0365 206.164C39.4062 205.606 38.1221 204.891 37.1841 204.02L38.4236 201.407C39.3169 202.189 40.4559 202.836 41.8405 203.35C43.2252 203.864 44.6656 204.12 46.162 204.12C47.5243 204.12 48.6297 203.964 49.4784 203.652C50.3271 203.339 50.9524 202.915 51.3544 202.379C51.7564 201.82 51.9574 201.195 51.9574 200.503C51.9574 199.699 51.6894 199.051 51.1534 198.56C50.6397 198.068 49.9586 197.677 49.1099 197.387C48.2836 197.074 47.3679 196.806 46.363 196.583C45.358 196.36 44.3418 196.103 43.3145 195.813C42.3095 195.5 41.3827 195.109 40.534 194.64C39.7077 194.171 39.0377 193.546 38.5241 192.764C38.0104 191.96 37.7536 190.933 37.7536 189.682C37.7536 188.476 38.0663 187.371 38.6916 186.366C39.3392 185.338 40.3219 184.523 41.6395 183.92C42.9795 183.295 44.6768 182.982 46.7314 182.982C48.0938 182.982 49.4449 183.161 50.7849 183.518C52.1249 183.876 53.2862 184.389 54.2688 185.059L53.1633 187.739C52.1584 187.069 51.0975 186.589 49.9809 186.299C48.8642 185.986 47.7811 185.83 46.7314 185.83C45.4138 185.83 44.3307 185.997 43.482 186.332C42.6333 186.667 42.008 187.114 41.606 187.672C41.2264 188.231 41.0365 188.856 41.0365 189.548C41.0365 190.375 41.2934 191.033 41.807 191.525C42.343 192.016 43.0242 192.407 43.8505 192.697C44.6991 192.988 45.626 193.256 46.6309 193.501C47.6359 193.724 48.6409 193.981 49.6459 194.272C50.6732 194.562 51.6 194.942 52.4264 195.411C53.275 195.88 53.9562 196.505 54.4698 197.287C54.9835 198.068 55.2403 199.073 55.2403 200.302C55.2403 201.485 54.9165 202.591 54.2688 203.618C53.6212 204.623 52.6162 205.438 51.2539 206.063C49.9139 206.666 48.2166 206.968 46.162 206.968ZM75.3431 206.968C73.5565 206.968 71.848 206.7 70.2177 206.164C68.5874 205.606 67.3033 204.891 66.3653 204.02L67.6048 201.407C68.4981 202.189 69.6371 202.836 71.0217 203.35C72.4063 203.864 73.8468 204.12 75.3431 204.12C76.7054 204.12 77.8109 203.964 78.6596 203.652C79.5082 203.339 80.1336 202.915 80.5355 202.379C80.9375 201.82 81.1385 201.195 81.1385 200.503C81.1385 199.699 80.8705 199.051 80.3345 198.56C79.8209 198.068 79.1397 197.677 78.2911 197.387C77.4648 197.074 76.5491 196.806 75.5441 196.583C74.5391 196.36 73.523 196.103 72.4957 195.813C71.4907 195.5 70.5639 195.109 69.7152 194.64C68.8889 194.171 68.2189 193.546 67.7053 192.764C67.1916 191.96 66.9348 190.933 66.9348 189.682C66.9348 188.476 67.2474 187.371 67.8727 186.366C68.5204 185.338 69.5031 184.523 70.8207 183.92C72.1607 183.295 73.858 182.982 75.9126 182.982C77.2749 182.982 78.6261 183.161 79.9661 183.518C81.306 183.876 82.4673 184.389 83.45 185.059L82.3445 187.739C81.3395 187.069 80.2787 186.589 79.1621 186.299C78.0454 185.986 76.9623 185.83 75.9126 185.83C74.595 185.83 73.5118 185.997 72.6632 186.332C71.8145 186.667 71.1892 187.114 70.7872 187.672C70.4075 188.231 70.2177 188.856 70.2177 189.548C70.2177 190.375 70.4745 191.033 70.9882 191.525C71.5242 192.016 72.2053 192.407 73.0317 192.697C73.8803 192.988 74.8071 193.256 75.8121 193.501C76.8171 193.724 77.8221 193.981 78.8271 194.272C79.8544 194.562 80.7812 194.942 81.6075 195.411C82.4562 195.88 83.1373 196.505 83.651 197.287C84.1647 198.068 84.4215 199.073 84.4215 200.302C84.4215 201.485 84.0977 202.591 83.45 203.618C82.8023 204.623 81.7974 205.438 80.435 206.063C79.0951 206.666 77.3978 206.968 75.3431 206.968ZM100.739 193.367H112.799V196.215H100.739V193.367ZM101.04 203.785H114.708V206.7H97.6904V183.25H114.239V186.165H101.04V203.785ZM133.164 206.7V186.165H125.124V183.25H144.52V186.165H136.48V206.7H133.164ZM173.915 206.7V183.25H176.662L187.181 200.972H185.707L196.091 183.25H198.838L198.872 206.7H195.656L195.622 188.309H196.393L187.147 203.852H185.606L176.293 188.309H177.131V206.7H173.915ZM210.733 206.7L221.353 183.25H224.669L235.322 206.7H231.804L222.324 185.126H223.664L214.184 206.7H210.733ZM215.256 200.838L216.16 198.158H229.359L230.33 200.838H215.256ZM247.195 206.7V183.25H249.942L265.452 202.513H264.012V183.25H267.362V206.7H264.615L249.104 187.438H250.545V206.7H247.195ZM279.204 206.7L289.824 183.25H293.14L303.793 206.7H300.276L290.795 185.126H292.135L282.655 206.7H279.204ZM283.727 200.838L284.631 198.158H297.83L298.802 200.838H283.727ZM325.925 206.968C324.116 206.968 322.452 206.678 320.933 206.097C319.415 205.494 318.097 204.656 316.98 203.585C315.864 202.49 314.993 201.217 314.367 199.766C313.742 198.314 313.429 196.717 313.429 194.975C313.429 193.233 313.742 191.636 314.367 190.185C314.993 188.733 315.864 187.471 316.98 186.399C318.119 185.305 319.448 184.467 320.967 183.887C322.485 183.284 324.16 182.982 325.992 182.982C327.845 182.982 329.543 183.284 331.083 183.887C332.624 184.49 333.931 185.394 335.003 186.6L332.926 188.677C331.966 187.739 330.916 187.058 329.777 186.634C328.66 186.187 327.443 185.964 326.126 185.964C324.786 185.964 323.535 186.187 322.374 186.634C321.235 187.08 320.241 187.706 319.392 188.51C318.566 189.314 317.918 190.274 317.449 191.391C317.003 192.485 316.779 193.68 316.779 194.975C316.779 196.248 317.003 197.443 317.449 198.56C317.918 199.654 318.566 200.614 319.392 201.441C320.241 202.245 321.235 202.87 322.374 203.317C323.513 203.763 324.752 203.986 326.092 203.986C327.343 203.986 328.538 203.797 329.677 203.417C330.838 203.015 331.91 202.356 332.892 201.441L334.802 203.986C333.641 204.969 332.278 205.717 330.715 206.231C329.174 206.722 327.577 206.968 325.925 206.968ZM331.586 203.551V194.841H334.802V203.986L331.586 203.551ZM352.639 193.367H364.699V196.215H352.639V193.367ZM352.941 203.785H366.608V206.7H349.591V183.25H366.139V186.165H352.941V203.785ZM380.408 206.7V183.25H383.154L393.673 200.972H392.199L402.584 183.25H405.331L405.365 206.7H402.149L402.115 188.309H402.886L393.64 203.852H392.099L382.786 188.309H383.623V206.7H380.408ZM423.825 193.367H435.885V196.215H423.825V193.367ZM424.127 203.785H437.795V206.7H420.777V183.25H437.326V186.165H424.127V203.785ZM451.594 206.7V183.25H454.341L469.851 202.513H468.411V183.25H471.761V206.7H469.014L453.503 187.438H454.944V206.7H451.594ZM491.811 206.7V186.165H483.771V183.25H503.167V186.165H495.127V206.7H491.811Z" fill="white"></path><rect x="2" width="501.3" height="18.9" fill="white"></rect><rect x="2" y="233.1" width="501.3" height="18.9" fill="white"></rect></svg> 