<?xml version="1.0" encoding="UTF-8"?> <svg xmlns="http://www.w3.org/2000/svg" width="218" height="218" viewBox="0 0 218 218" fill="none"><path d="M42.9623 57.3294H100.462V72.6126H60.1245V93.0319H97.3303V108.315H60.1245V129.737H101.088V145.02H42.9623V57.3294Z" fill="#0042FF"></path><path d="M150.647 82.3838H173.948V125.978C173.948 127.732 173.948 129.486 173.948 131.24H183.469V145.02H163.676L160.794 135.75H160.293C158.372 138.923 155.491 141.554 151.649 143.642C147.808 145.73 143.549 146.774 138.872 146.774C135.698 146.774 132.775 146.356 130.103 145.521C127.514 144.686 125.301 143.308 123.463 141.387C121.626 139.466 120.206 136.877 119.204 133.62C118.202 130.363 117.701 126.271 117.701 121.343V96.1637H110.56V82.3838H133.986V117.961C133.986 123.055 134.779 126.73 136.366 128.985C138.037 131.24 140.625 132.367 144.133 132.367C147.223 132.367 149.979 131.449 152.401 129.611C154.907 127.774 156.66 125.519 157.662 122.847V96.1637H150.647V82.3838Z" fill="#9C9C9C"></path><path d="M32.6818 33.7823C32.6818 34.6857 32.5137 35.5576 32.1776 36.398C31.8624 37.2384 31.3897 37.9842 30.7594 38.6356C30.1291 39.2869 29.3518 39.8121 28.4273 40.2113C27.5029 40.6105 26.4314 40.8101 25.2128 40.8101C24.0783 40.8101 23.0488 40.6315 22.1244 40.2743C21.2 39.9171 20.4016 39.4129 19.7293 38.7616C19.057 38.0893 18.5317 37.2699 18.1536 36.3035C17.7964 35.337 17.6178 34.255 17.6178 33.0575C17.6178 31.0826 17.9015 29.2127 18.4687 27.4479C19.057 25.683 19.8659 24.1283 20.8953 22.7837C21.9458 21.4391 23.1854 20.3466 24.6141 19.5062C26.0637 18.6658 27.65 18.1616 29.3728 17.9935L29.814 20.0104C28.4904 20.1785 27.2718 20.5672 26.1583 21.1765C25.0658 21.7857 24.1098 22.5421 23.2905 23.4455C22.4711 24.3489 21.7988 25.3469 21.2735 26.4394C20.7693 27.5319 20.4436 28.6454 20.2966 29.7799C20.4646 29.5068 20.7063 29.2232 21.0214 28.9291C21.3576 28.6349 21.7462 28.3828 22.1874 28.1727C22.6497 27.9416 23.1539 27.7525 23.7001 27.6054C24.2674 27.4584 24.8767 27.3848 25.528 27.3848C26.6415 27.3848 27.6395 27.5424 28.5219 27.8576C29.4043 28.1517 30.1501 28.5824 30.7594 29.1497C31.3897 29.6959 31.8624 30.3682 32.1776 31.1666C32.5137 31.9439 32.6818 32.8159 32.6818 33.7823ZM30.0976 34.0344C30.0976 32.5637 29.6879 31.4397 28.8685 30.6624C28.0492 29.885 26.7886 29.4963 25.0868 29.4963C24.4775 29.4963 23.9102 29.5698 23.385 29.7169C22.8598 29.864 22.387 30.0636 21.9668 30.3157C21.5466 30.5468 21.179 30.8199 20.8638 31.1351C20.5487 31.4502 20.3071 31.7654 20.139 32.0805C20.097 32.3746 20.076 32.6058 20.076 32.7738C20.076 32.9419 20.076 33.1415 20.076 33.3726C20.076 34.0029 20.181 34.6437 20.3911 35.295C20.6012 35.9253 20.9164 36.4926 21.3365 36.9968C21.7778 37.501 22.324 37.9107 22.9753 38.2259C23.6266 38.541 24.3935 38.6986 25.2759 38.6986C25.9902 38.6986 26.6415 38.5725 27.2298 38.3204C27.8181 38.0683 28.3223 37.7321 28.7425 37.3119C29.1837 36.8917 29.5198 36.398 29.751 35.8308C29.9821 35.2635 30.0976 34.6647 30.0976 34.0344ZM42.4075 38.6356C43.2479 38.6356 44.0148 38.5305 44.7081 38.3204C45.4224 38.0893 46.0422 37.7742 46.5674 37.375C47.0927 36.9758 47.5024 36.4926 47.7965 35.9253C48.0906 35.358 48.2377 34.7277 48.2377 34.0344C48.2377 32.5847 47.723 31.5553 46.6935 30.946C45.685 30.3157 44.3194 30.0005 42.5966 30.0005H40.5797V28.4878L46.788 20.6407H37.3652V18.3717H49.8134V20.6407L43.6051 27.9206H44.1093C45.0758 27.9206 45.9582 28.0571 46.7565 28.3303C47.5549 28.6034 48.2482 28.9921 48.8365 29.4963C49.4248 30.0005 49.8765 30.6098 50.1916 31.3242C50.5278 32.0385 50.6959 32.8474 50.6959 33.7508C50.6959 34.8853 50.4753 35.8938 50.034 36.7762C49.5928 37.6586 48.9941 38.4044 48.2377 39.0137C47.4814 39.602 46.5885 40.0537 45.559 40.3689C44.5505 40.663 43.4685 40.8101 42.313 40.8101C41.2415 40.8101 40.3065 40.726 39.5082 40.5579C38.7308 40.4109 38.0165 40.2218 37.3652 39.9907L37.9955 37.7847C38.5417 38.0368 39.1825 38.2469 39.9179 38.4149C40.6532 38.562 41.4831 38.6356 42.4075 38.6356Z" fill="#9C9C9C"></path><path d="M18.3057 198.172H21.5325V187.361L18.244 189.663L17.4424 188.491L21.9641 185.264H23.1151V198.172H26.2802V199.651H18.3057V198.172ZM33.2808 198.459C33.8015 198.459 34.281 198.398 34.7195 198.274C35.158 198.137 35.5279 197.939 35.8294 197.678C36.1445 197.404 36.3843 197.069 36.5487 196.671C36.7268 196.274 36.8159 195.808 36.8159 195.274C36.8159 194.287 36.4596 193.54 35.7471 193.033C35.0483 192.513 34.0892 192.252 32.8697 192.252L30.9377 192.355V185.264H37.9874V186.744H32.4792V190.916L33.5069 190.875C35.0278 190.875 36.2267 191.245 37.1036 191.985C37.9806 192.725 38.419 193.78 38.419 195.15C38.419 195.918 38.282 196.596 38.008 197.185C37.7476 197.774 37.3845 198.274 36.9187 198.685C36.4528 199.083 35.8979 199.384 35.2539 199.59C34.6236 199.795 33.9316 199.898 33.178 199.898C32.767 199.898 32.3764 199.864 32.0065 199.795C31.6365 199.741 31.3008 199.672 30.9994 199.59C30.698 199.494 30.4308 199.398 30.1978 199.302C29.9786 199.192 29.821 199.097 29.7251 199.014L30.3828 197.678C30.6157 197.815 30.972 197.98 31.4516 198.172C31.9311 198.364 32.5409 198.459 33.2808 198.459ZM42.9532 198.172H46.18V187.361L42.8916 189.663L42.09 188.491L46.6117 185.264H47.7626V198.172H50.9278V199.651H42.9532V198.172ZM57.4556 198.521C57.4556 198.083 57.5789 197.747 57.8256 197.514C58.0722 197.267 58.401 197.144 58.8121 197.144C59.2506 197.144 59.5931 197.267 59.8398 197.514C60.0864 197.747 60.2097 198.083 60.2097 198.521C60.2097 198.918 60.0864 199.247 59.8398 199.508C59.5931 199.768 59.2506 199.898 58.8121 199.898C58.401 199.898 58.0722 199.768 57.8256 199.508C57.5789 199.247 57.4556 198.918 57.4556 198.521ZM66.2443 189.601C66.2443 188.971 66.347 188.382 66.5526 187.834C66.7581 187.272 67.0664 186.785 67.4774 186.374C67.9022 185.949 68.4229 185.621 69.0395 185.388C69.6561 185.141 70.3754 185.018 71.1975 185.018C71.9649 185.018 72.65 185.141 73.2528 185.388C73.8557 185.634 74.3627 185.984 74.7738 186.436C75.1985 186.874 75.5205 187.416 75.7398 188.06C75.959 188.69 76.0686 189.396 76.0686 190.177C76.0686 191.711 75.8768 193.061 75.4931 194.225C75.1095 195.39 74.5751 196.377 73.89 197.185C73.2049 197.994 72.3896 198.624 71.4442 199.076C70.5124 199.528 69.4985 199.802 68.4023 199.898L68.094 198.603C68.9984 198.507 69.8068 198.288 70.5193 197.946C71.2318 197.603 71.8484 197.165 72.3691 196.63C72.8897 196.096 73.3145 195.479 73.6434 194.78C73.9722 194.082 74.1983 193.335 74.3216 192.54C74.1024 192.773 73.8763 192.972 73.6434 193.136C73.4241 193.287 73.1775 193.41 72.9034 193.506C72.6294 193.602 72.328 193.671 71.9991 193.712C71.6703 193.753 71.2935 193.773 70.8687 193.773C70.2384 193.773 69.6424 193.677 69.0806 193.486C68.5188 193.294 68.0255 193.02 67.6008 192.663C67.1897 192.294 66.8609 191.855 66.6142 191.348C66.3676 190.827 66.2443 190.245 66.2443 189.601ZM67.9296 189.437C67.9296 190.423 68.2242 191.163 68.8134 191.656C69.4163 192.15 70.211 192.396 71.1975 192.396C71.9786 192.396 72.65 192.28 73.2117 192.047C73.7872 191.8 74.1914 191.499 74.4244 191.143C74.4518 190.951 74.4655 190.8 74.4655 190.69C74.4655 190.567 74.4655 190.43 74.4655 190.279C74.4655 189.8 74.397 189.327 74.2599 188.861C74.1366 188.395 73.9379 187.977 73.6639 187.607C73.3899 187.237 73.0336 186.943 72.5951 186.724C72.1704 186.491 71.6566 186.374 71.0537 186.374C70.0671 186.374 69.2998 186.641 68.7517 187.176C68.2037 187.71 67.9296 188.464 67.9296 189.437ZM88.3924 195.315C88.3924 195.904 88.2828 196.473 88.0635 197.021C87.858 197.569 87.5497 198.055 87.1386 198.48C86.7276 198.905 86.2206 199.247 85.6177 199.508C85.0148 199.768 84.316 199.898 83.5213 199.898C82.7814 199.898 82.11 199.782 81.5071 199.549C80.9042 199.316 80.3836 198.987 79.9451 198.562C79.5066 198.124 79.1641 197.589 78.9174 196.959C78.6845 196.329 78.568 195.623 78.568 194.842C78.568 193.554 78.753 192.335 79.123 191.184C79.5066 190.033 80.0342 189.019 80.7056 188.142C81.3907 187.265 82.1991 186.552 83.1308 186.004C84.0763 185.456 85.1108 185.127 86.2343 185.018L86.5221 186.333C85.6588 186.443 84.8641 186.696 84.1379 187.094C83.4254 187.491 82.802 187.984 82.2676 188.573C81.7332 189.163 81.2947 189.813 80.9522 190.526C80.6233 191.238 80.411 191.965 80.3151 192.705C80.4247 192.526 80.5822 192.341 80.7878 192.15C81.007 191.958 81.2605 191.793 81.5482 191.656C81.8497 191.506 82.1785 191.382 82.5348 191.286C82.9047 191.191 83.3021 191.143 83.7269 191.143C84.4531 191.143 85.1039 191.245 85.6794 191.451C86.2549 191.643 86.7413 191.924 87.1386 192.294C87.5497 192.65 87.858 193.088 88.0635 193.609C88.2828 194.116 88.3924 194.685 88.3924 195.315ZM86.707 195.479C86.707 194.52 86.4398 193.787 85.9055 193.28C85.3711 192.773 84.549 192.52 83.4391 192.52C83.0418 192.52 82.6718 192.568 82.3292 192.663C81.9867 192.759 81.6784 192.89 81.4044 193.054C81.1303 193.205 80.8905 193.383 80.685 193.588C80.4795 193.794 80.3219 193.999 80.2123 194.205C80.1849 194.397 80.1712 194.547 80.1712 194.657C80.1712 194.767 80.1712 194.897 80.1712 195.048C80.1712 195.459 80.2397 195.877 80.3767 196.301C80.5137 196.712 80.7193 197.082 80.9933 197.411C81.281 197.74 81.6373 198.007 82.0621 198.213C82.4868 198.418 82.9869 198.521 83.5624 198.521C84.0283 198.521 84.4531 198.439 84.8367 198.274C85.2204 198.11 85.5492 197.891 85.8233 197.617C86.111 197.343 86.3302 197.021 86.481 196.651C86.6317 196.281 86.707 195.89 86.707 195.479Z" fill="#9C9C9C"></path><path d="M19.8992 167.633H25.6211V169.393H19.8992V167.633ZM20.0636 172.566H26.5583V174.358H17.9261V162.848H26.3281V164.641H20.0636V172.566ZM32.3796 174.473C31.6342 174.473 30.9765 174.336 30.4065 174.062C29.8365 173.777 29.3926 173.35 29.0747 172.78C28.7568 172.199 28.5978 171.47 28.5978 170.593V165.578H30.6531V170.313C30.6531 171.103 30.8285 171.694 31.1793 172.089C31.541 172.473 32.0507 172.665 32.7084 172.665C33.1908 172.665 33.6073 172.566 33.9581 172.369C34.3198 172.171 34.5993 171.875 34.7966 171.481C35.0049 171.086 35.109 170.598 35.109 170.017V165.578H37.1643V174.358H35.2077V171.99L35.553 172.714C35.257 173.284 34.824 173.722 34.254 174.029C33.684 174.325 33.0592 174.473 32.3796 174.473ZM39.8554 174.358V165.578H41.812V167.995L41.5818 167.288C41.8449 166.696 42.256 166.247 42.815 165.94C43.385 165.633 44.092 165.479 44.9361 165.479V167.436C44.8484 167.414 44.7662 167.403 44.6894 167.403C44.6127 167.392 44.536 167.387 44.4592 167.387C43.681 167.387 43.0616 167.617 42.6012 168.077C42.1409 168.527 41.9107 169.201 41.9107 170.1V174.358H39.8554ZM50.5455 174.473C49.6466 174.473 48.8465 174.281 48.1449 173.898C47.4434 173.503 46.8898 172.966 46.4842 172.286C46.0786 171.607 45.8759 170.834 45.8759 169.968C45.8759 169.091 46.0786 168.318 46.4842 167.65C46.8898 166.97 47.4434 166.438 48.1449 166.055C48.8465 165.671 49.6466 165.479 50.5455 165.479C51.4553 165.479 52.261 165.671 52.9625 166.055C53.675 166.438 54.2286 166.965 54.6232 167.633C55.0288 168.302 55.2316 169.08 55.2316 169.968C55.2316 170.834 55.0288 171.607 54.6232 172.286C54.2286 172.966 53.675 173.503 52.9625 173.898C52.261 174.281 51.4553 174.473 50.5455 174.473ZM50.5455 172.714C51.0497 172.714 51.4992 172.604 51.8938 172.385C52.2884 172.166 52.5953 171.848 52.8146 171.431C53.0447 171.015 53.1598 170.527 53.1598 169.968C53.1598 169.398 53.0447 168.91 52.8146 168.505C52.5953 168.088 52.2884 167.77 51.8938 167.551C51.4992 167.332 51.0552 167.222 50.5619 167.222C50.0577 167.222 49.6083 167.332 49.2137 167.551C48.83 167.77 48.5231 168.088 48.2929 168.505C48.0627 168.91 47.9476 169.398 47.9476 169.968C47.9476 170.527 48.0627 171.015 48.2929 171.431C48.5231 171.848 48.83 172.166 49.2137 172.385C49.6083 172.604 50.0522 172.714 50.5455 172.714ZM62.0639 174.473C61.3514 174.473 60.6992 174.309 60.1073 173.98C59.5263 173.651 59.0604 173.158 58.7097 172.5C58.3699 171.832 58.2 170.987 58.2 169.968C58.2 168.938 58.3644 168.094 58.6932 167.436C59.033 166.778 59.4934 166.29 60.0744 165.973C60.6554 165.644 61.3185 165.479 62.0639 165.479C62.9299 165.479 63.6917 165.666 64.3494 166.038C65.0181 166.411 65.5442 166.932 65.9279 167.6C66.3225 168.269 66.5198 169.058 66.5198 169.968C66.5198 170.878 66.3225 171.673 65.9279 172.352C65.5442 173.021 65.0181 173.542 64.3494 173.914C63.6917 174.287 62.9299 174.473 62.0639 174.473ZM57.197 177.548V165.578H59.1536V167.65L59.0878 169.984L59.2523 172.319V177.548H57.197ZM61.8337 172.714C62.327 172.714 62.7655 172.604 63.1491 172.385C63.5437 172.166 63.8561 171.848 64.0863 171.431C64.3165 171.015 64.4316 170.527 64.4316 169.968C64.4316 169.398 64.3165 168.91 64.0863 168.505C63.8561 168.088 63.5437 167.77 63.1491 167.551C62.7655 167.332 62.327 167.222 61.8337 167.222C61.3405 167.222 60.8965 167.332 60.5019 167.551C60.1073 167.77 59.7949 168.088 59.5647 168.505C59.3345 168.91 59.2194 169.398 59.2194 169.968C59.2194 170.527 59.3345 171.015 59.5647 171.431C59.7949 171.848 60.1073 172.166 60.5019 172.385C60.8965 172.604 61.3405 172.714 61.8337 172.714ZM68.469 174.358V165.578H70.5243V174.358H68.469ZM69.5049 164.131C69.1212 164.131 68.8033 164.01 68.5512 163.769C68.3101 163.528 68.1895 163.238 68.1895 162.898C68.1895 162.547 68.3101 162.257 68.5512 162.026C68.8033 161.785 69.1212 161.665 69.5049 161.665C69.8885 161.665 70.2009 161.78 70.4421 162.01C70.6942 162.229 70.8203 162.509 70.8203 162.848C70.8203 163.21 70.6997 163.517 70.4585 163.769C70.2174 164.01 69.8995 164.131 69.5049 164.131ZM76.9379 174.473C76.1925 174.473 75.5348 174.336 74.9648 174.062C74.3948 173.777 73.9508 173.35 73.6329 172.78C73.3151 172.199 73.1561 171.47 73.1561 170.593V165.578H75.2114V170.313C75.2114 171.103 75.3868 171.694 75.7376 172.089C76.0993 172.473 76.609 172.665 77.2667 172.665C77.749 172.665 78.1656 172.566 78.5163 172.369C78.8781 172.171 79.1576 171.875 79.3549 171.481C79.5632 171.086 79.6673 170.598 79.6673 170.017V165.578H81.7226V174.358H79.766V171.99L80.1113 172.714C79.8153 173.284 79.3823 173.722 78.8123 174.029C78.2423 174.325 77.6175 174.473 76.9379 174.473ZM95.4958 165.479C96.1974 165.479 96.8167 165.616 97.3538 165.89C97.9019 166.164 98.3294 166.586 98.6363 167.156C98.9433 167.715 99.0967 168.439 99.0967 169.327V174.358H97.0414V169.59C97.0414 168.812 96.8715 168.231 96.5317 167.847C96.1919 167.463 95.7041 167.271 95.0683 167.271C94.6189 167.271 94.2188 167.37 93.868 167.567C93.5282 167.765 93.2597 168.055 93.0624 168.439C92.876 168.823 92.7828 169.31 92.7828 169.902V174.358H90.7275V169.59C90.7275 168.812 90.5576 168.231 90.2178 167.847C89.878 167.463 89.3902 167.271 88.7544 167.271C88.305 167.271 87.9049 167.37 87.5541 167.567C87.2143 167.765 86.9458 168.055 86.7485 168.439C86.5621 168.823 86.4689 169.31 86.4689 169.902V174.358H84.4136V165.578H86.3703V167.913L86.025 167.222C86.321 166.652 86.7485 166.219 87.3075 165.923C87.8775 165.627 88.5242 165.479 89.2477 165.479C90.0698 165.479 90.7823 165.682 91.3852 166.088C91.9991 166.493 92.4047 167.107 92.602 167.929L91.7963 167.65C92.0813 166.992 92.5526 166.466 93.2103 166.071C93.868 165.677 94.6299 165.479 95.4958 165.479Z" fill="#9C9C9C"></path><rect x="2.67859" y="2.15528" width="213.066" height="213.066" stroke="#0042FF" stroke-width="4.1106"></rect></svg> 