<?xml version="1.0" encoding="UTF-8"?> <svg xmlns="http://www.w3.org/2000/svg" width="40" height="40" viewBox="0 0 40 40" fill="none"><g clip-path="url(#clip0_143_41)"><path fill-rule="evenodd" clip-rule="evenodd" d="M5.20002 39.2076H35.3C37.6758 39.2076 39.6 37.2833 39.6 34.9076V4.80757C39.6 2.43182 37.6758 0.507568 35.3 0.507568H5.20002C2.82427 0.507568 0.900024 2.43182 0.900024 4.80757V34.9076C0.900024 37.2833 2.82427 39.2076 5.20002 39.2076Z" fill="#C4C4C4"></path><path fill-rule="evenodd" clip-rule="evenodd" d="M34.225 33.8326H28.4845V24.0501C28.4845 21.368 27.4633 19.8684 25.3455 19.8684C23.0343 19.8684 21.8303 21.4271 21.8303 24.0501V33.8326H16.294V15.1975H21.8303V17.7076C21.8303 17.7076 23.4965 14.6278 27.4471 14.6278C31.3978 14.6278 34.2304 17.0411 34.2304 22.0345V33.8326H34.225ZM9.68815 12.7573C7.80152 12.7573 6.27502 11.22 6.27502 9.31726C6.27502 7.41451 7.80152 5.87726 9.68815 5.87726C11.5748 5.87726 13.1013 7.41451 13.1013 9.31726C13.1013 11.22 11.5748 12.7573 9.68815 12.7573ZM6.82865 33.8326H12.6014V15.1975H6.82865V33.8326Z" fill="white"></path></g><defs><clipPath id="clip0_143_41"><rect width="38.7" height="38.7" fill="white" transform="translate(0.900024 0.507568)"></rect></clipPath></defs></svg> 