<?xml version="1.0" encoding="UTF-8"?> <svg xmlns="http://www.w3.org/2000/svg" width="218" height="218" viewBox="0 0 218 218" fill="none"><path d="M56.6219 93.1572H55.9955L56.7471 103.555V145.02H40.4618V57.3294H55.4944L85.8102 110.946H86.4366L85.3091 100.423V57.3294H101.594V145.02H86.5619L56.6219 93.1572Z" fill="#0042FF"></path><path d="M146.894 57.3294H173.076V111.447C173.076 117.71 173.41 123.891 174.078 129.987C174.078 130.405 174.12 130.822 174.203 131.24H182.221V145.02H162.052L160.423 137.002H159.922C159.087 138.506 157.96 139.842 156.54 141.011C155.12 142.18 153.533 143.224 151.78 144.143C150.026 144.978 148.105 145.604 146.017 146.022C143.929 146.523 141.841 146.774 139.754 146.774C135.828 146.774 132.112 146.147 128.604 144.895C125.18 143.642 122.174 141.721 119.585 139.132C116.996 136.46 114.95 133.119 113.446 129.11C111.943 125.018 111.192 120.216 111.192 114.704C111.192 109.359 111.985 104.599 113.572 100.423C115.242 96.2472 117.497 92.7396 120.336 89.9001C123.259 86.9771 126.683 84.7639 130.609 83.2607C134.534 81.6739 138.835 80.8805 143.512 80.8805C146.101 80.8805 148.523 81.0475 150.777 81.3816C153.116 81.6321 155.12 82.0915 156.791 82.7596V71.1093H146.894V57.3294ZM143.512 132.994C146.685 132.994 149.483 132.242 151.905 130.739C154.41 129.152 156.039 126.897 156.791 123.974V97.4164C155.621 96.4978 153.993 95.8296 151.905 95.4121C149.901 94.911 147.771 94.6604 145.516 94.6604C143.261 94.6604 141.048 95.0363 138.877 95.7879C136.789 96.5395 134.91 97.7505 133.239 99.4208C131.653 101.008 130.358 103.095 129.356 105.684C128.437 108.273 127.978 111.447 127.978 115.205C127.978 120.55 129.314 124.851 131.987 128.108C134.659 131.365 138.501 132.994 143.512 132.994Z" fill="#9C9C9C"></path><path d="M32.6202 33.7823C32.6202 34.6857 32.4521 35.5576 32.1159 36.398C31.8008 37.2384 31.3281 37.9842 30.6978 38.6356C30.0675 39.2869 29.2901 39.8121 28.3657 40.2113C27.4413 40.6105 26.3698 40.8101 25.1512 40.8101C24.0167 40.8101 22.9872 40.6315 22.0628 40.2743C21.1383 39.9171 20.34 39.4129 19.6677 38.7616C18.9953 38.0893 18.4701 37.2699 18.0919 36.3035C17.7348 35.337 17.5562 34.255 17.5562 33.0575C17.5562 31.0826 17.8398 29.2127 18.4071 27.4479C18.9953 25.683 19.8042 24.1283 20.8337 22.7837C21.8842 21.4391 23.1238 20.3466 24.5524 19.5062C26.0021 18.6658 27.5883 18.1616 29.3111 17.9935L29.7523 20.0104C28.4287 20.1785 27.2102 20.5672 26.0966 21.1765C25.0041 21.7857 24.0482 22.5421 23.2288 23.4455C22.4094 24.3489 21.7371 25.3469 21.2119 26.4394C20.7076 27.5319 20.382 28.6454 20.2349 29.7799C20.403 29.5068 20.6446 29.2232 20.9598 28.9291C21.2959 28.6349 21.6846 28.3828 22.1258 28.1727C22.588 27.9416 23.0922 27.7525 23.6385 27.6054C24.2058 27.4584 24.815 27.3848 25.4663 27.3848C26.5799 27.3848 27.5778 27.5424 28.4602 27.8576C29.3426 28.1517 30.0885 28.5824 30.6978 29.1497C31.3281 29.6959 31.8008 30.3682 32.1159 31.1666C32.4521 31.9439 32.6202 32.8159 32.6202 33.7823ZM30.036 34.0344C30.036 32.5637 29.6263 31.4397 28.8069 30.6624C27.9875 29.885 26.7269 29.4963 25.0251 29.4963C24.4159 29.4963 23.8486 29.5698 23.3234 29.7169C22.7981 29.864 22.3254 30.0636 21.9052 30.3157C21.485 30.5468 21.1173 30.8199 20.8022 31.1351C20.487 31.4502 20.2454 31.7654 20.0773 32.0805C20.0353 32.3746 20.0143 32.6058 20.0143 32.7738C20.0143 32.9419 20.0143 33.1415 20.0143 33.3726C20.0143 34.0029 20.1194 34.6437 20.3295 35.295C20.5396 35.9253 20.8547 36.4926 21.2749 36.9968C21.7161 37.501 22.2624 37.9107 22.9137 38.2259C23.565 38.541 24.3318 38.6986 25.2142 38.6986C25.9286 38.6986 26.5799 38.5725 27.1681 38.3204C27.7564 38.0683 28.2606 37.7321 28.6808 37.3119C29.122 36.8917 29.4582 36.398 29.6893 35.8308C29.9204 35.2635 30.036 34.6647 30.036 34.0344ZM36.2635 29.4018C36.2635 27.6159 36.4211 26.0192 36.7363 24.6115C37.0514 23.1829 37.5241 21.9853 38.1544 21.0189C38.7847 20.0314 39.5831 19.2856 40.5495 18.7813C41.516 18.2561 42.661 17.9935 43.9846 17.9935C45.3923 17.9935 46.5793 18.2456 47.5458 18.7498C48.5332 19.2541 49.3316 19.9894 49.9409 20.9559C50.5502 21.9223 50.9914 23.1199 51.2645 24.5485C51.5376 25.9562 51.6742 27.5739 51.6742 29.4018C51.6742 31.1876 51.5166 32.7948 51.2015 34.2235C50.8863 35.6312 50.4136 36.8287 49.7833 37.8162C49.153 38.7826 48.3547 39.5285 47.3882 40.0537C46.4218 40.5579 45.2767 40.8101 43.9531 40.8101C42.5665 40.8101 41.3794 40.5369 40.392 39.9907C39.4255 39.4234 38.6271 38.6356 37.9969 37.6271C37.3876 36.6186 36.9464 35.4211 36.6732 34.0344C36.4001 32.6268 36.2635 31.0825 36.2635 29.4018ZM49.09 29.4018C49.09 28.2883 49.027 27.2273 48.9009 26.2188L39.5411 34.7593C39.8982 35.9568 40.434 36.9128 41.1483 37.6271C41.8626 38.3414 42.7976 38.6986 43.9531 38.6986C45.802 38.6986 47.1151 37.9317 47.8924 36.398C48.6908 34.8643 49.09 32.5322 49.09 29.4018ZM38.8793 29.4018C38.8793 29.927 38.8898 30.4312 38.9108 30.9145C38.9528 31.3977 38.9948 31.8704 39.0368 32.3326L48.4282 23.8237C48.071 22.6892 47.5353 21.7857 46.8209 21.1134C46.1276 20.4411 45.1822 20.105 43.9846 20.105C42.1148 20.105 40.7911 20.8823 40.0138 22.437C39.2574 23.9708 38.8793 26.2923 38.8793 29.4018Z" fill="#9C9C9C"></path><path d="M18.244 198.172H21.4708V187.361L18.1824 189.663L17.3808 188.491L21.9025 185.264H23.0534V198.172H26.2186V199.651H18.244V198.172ZM39.8783 195.171H37.1037V199.651H35.5005V195.171H28.8619V193.979L35.7472 185.264H37.1037V193.814H39.8783V195.171ZM35.5005 187.834L30.7528 193.814H35.5005V187.834ZM52.2021 195.171H49.4274V199.651H47.8243V195.171H41.1857V193.979L48.0709 185.264H49.4274V193.814H52.2021V195.171ZM47.8243 187.834L43.0765 193.814H47.8243V187.834ZM57.394 198.521C57.394 198.083 57.5173 197.747 57.7639 197.514C58.0106 197.267 58.3394 197.144 58.7505 197.144C59.1889 197.144 59.5315 197.267 59.7781 197.514C60.0247 197.747 60.1481 198.083 60.1481 198.521C60.1481 198.918 60.0247 199.247 59.7781 199.508C59.5315 199.768 59.1889 199.898 58.7505 199.898C58.3394 199.898 58.0106 199.768 57.7639 199.508C57.5173 199.247 57.394 198.918 57.394 198.521ZM75.2054 188.902C75.2054 190.163 74.6094 191.567 73.4173 193.116C72.2252 194.664 70.5604 196.349 68.4229 198.172H75.6576V199.651H66.532V198.172C66.7924 197.925 67.1486 197.603 67.6008 197.206C68.0529 196.808 68.5394 196.37 69.06 195.89C69.5807 195.397 70.1082 194.869 70.6426 194.308C71.1907 193.746 71.684 193.17 72.1224 192.581C72.5609 191.992 72.9172 191.403 73.1912 190.814C73.4652 190.225 73.6023 189.656 73.6023 189.108C73.6023 188.286 73.383 187.642 72.9446 187.176C72.5198 186.696 71.8758 186.456 71.0126 186.456C70.2727 186.456 69.6492 186.539 69.1423 186.703C68.6353 186.868 68.1763 187.107 67.7652 187.422L67.0664 186.292C67.683 185.854 68.3338 185.532 69.0189 185.326C69.7177 185.121 70.4782 185.018 71.3003 185.018C72.5883 185.018 73.5612 185.367 74.2188 186.066C74.8765 186.765 75.2054 187.71 75.2054 188.902ZM89.1734 195.171H86.3988V199.651H84.7956V195.171H78.157V193.979L85.0423 185.264H86.3988V193.814H89.1734V195.171ZM84.7956 187.834L80.0479 193.814H84.7956V187.834Z" fill="#9C9C9C"></path><path d="M17.8646 174.358V162.848H19.6239L26.8421 171.711H25.9707V162.848H28.0917V174.358H26.3324L19.1142 165.496H19.9856V174.358H17.8646ZM35.1056 174.473C34.13 174.473 33.275 174.281 32.5406 173.898C31.8171 173.503 31.2526 172.966 30.847 172.286C30.4524 171.607 30.2551 170.834 30.2551 169.968C30.2551 169.091 30.4469 168.318 30.8305 167.65C31.2252 166.97 31.7623 166.438 32.4419 166.055C33.1325 165.671 33.9162 165.479 34.7932 165.479C35.6482 165.479 36.41 165.666 37.0787 166.038C37.7473 166.411 38.2735 166.937 38.6571 167.617C39.0408 168.296 39.2326 169.097 39.2326 170.017C39.2326 170.105 39.2271 170.204 39.2162 170.313C39.2162 170.423 39.2107 170.527 39.1997 170.626H31.8829V169.261H38.1145L37.3089 169.689C37.3198 169.184 37.2157 168.74 36.9965 168.357C36.7772 167.973 36.4758 167.672 36.0921 167.452C35.7194 167.233 35.2864 167.123 34.7932 167.123C34.2889 167.123 33.845 167.233 33.4613 167.452C33.0886 167.672 32.7927 167.979 32.5734 168.373C32.3652 168.757 32.261 169.212 32.261 169.738V170.067C32.261 170.593 32.3816 171.059 32.6228 171.464C32.8639 171.87 33.2037 172.182 33.6422 172.402C34.0807 172.621 34.5849 172.73 35.1549 172.73C35.6482 172.73 36.0921 172.654 36.4867 172.5C36.8814 172.347 37.2321 172.106 37.5391 171.777L38.6407 173.043C38.2461 173.503 37.7473 173.859 37.1444 174.112C36.5525 174.353 35.8729 174.473 35.1056 174.473ZM45.153 174.473C44.2542 174.473 43.454 174.281 42.7524 173.898C42.0509 173.503 41.4973 172.966 41.0918 172.286C40.6862 171.607 40.4834 170.834 40.4834 169.968C40.4834 169.091 40.6862 168.318 41.0918 167.65C41.4973 166.97 42.0509 166.438 42.7524 166.055C43.454 165.671 44.2542 165.479 45.153 165.479C46.0629 165.479 46.8685 165.671 47.5701 166.055C48.2826 166.438 48.8361 166.965 49.2308 167.633C49.6363 168.302 49.8391 169.08 49.8391 169.968C49.8391 170.834 49.6363 171.607 49.2308 172.286C48.8361 172.966 48.2826 173.503 47.5701 173.898C46.8685 174.281 46.0629 174.473 45.153 174.473ZM45.153 172.714C45.6573 172.714 46.1067 172.604 46.5013 172.385C46.8959 172.166 47.2029 171.848 47.4221 171.431C47.6523 171.015 47.7674 170.527 47.7674 169.968C47.7674 169.398 47.6523 168.91 47.4221 168.505C47.2029 168.088 46.8959 167.77 46.5013 167.551C46.1067 167.332 45.6628 167.222 45.1695 167.222C44.6652 167.222 44.2158 167.332 43.8212 167.551C43.4375 167.77 43.1306 168.088 42.9004 168.505C42.6702 168.91 42.5551 169.398 42.5551 169.968C42.5551 170.527 42.6702 171.015 42.9004 171.431C43.1306 171.848 43.4375 172.166 43.8212 172.385C44.2158 172.604 44.6598 172.714 45.153 172.714ZM55.5205 174.473C54.6764 174.473 53.9146 174.287 53.235 173.914C52.5663 173.531 52.0402 173.004 51.6565 172.336C51.2729 171.667 51.081 170.878 51.081 169.968C51.081 169.058 51.2729 168.269 51.6565 167.6C52.0402 166.932 52.5663 166.411 53.235 166.038C53.9146 165.666 54.6764 165.479 55.5205 165.479C56.2549 165.479 56.9126 165.644 57.4936 165.973C58.0745 166.29 58.5349 166.778 58.8747 167.436C59.2146 168.094 59.3845 168.938 59.3845 169.968C59.3845 170.987 59.22 171.832 58.8912 172.5C58.5623 173.158 58.1074 173.651 57.5265 173.98C56.9455 174.309 56.2768 174.473 55.5205 174.473ZM55.7671 172.714C56.2604 172.714 56.6989 172.604 57.0825 172.385C57.4771 172.166 57.7895 171.848 58.0197 171.431C58.2609 171.015 58.3815 170.527 58.3815 169.968C58.3815 169.398 58.2609 168.91 58.0197 168.505C57.7895 168.088 57.4771 167.77 57.0825 167.551C56.6989 167.332 56.2604 167.222 55.7671 167.222C55.2739 167.222 54.8299 167.332 54.4353 167.551C54.0516 167.77 53.7392 168.088 53.4981 168.505C53.2679 168.91 53.1528 169.398 53.1528 169.968C53.1528 170.527 53.2679 171.015 53.4981 171.431C53.7392 171.848 54.0516 172.166 54.4353 172.385C54.8299 172.604 55.2739 172.714 55.7671 172.714ZM58.4308 174.358V172.286L58.513 169.952L58.3486 167.617V162.158H60.3874V174.358H58.4308ZM63.8161 177.663C63.3886 177.663 62.9611 177.592 62.5336 177.449C62.1061 177.307 61.7498 177.11 61.4648 176.857L62.2869 175.345C62.4952 175.531 62.7309 175.679 62.9939 175.789C63.257 175.898 63.5256 175.953 63.7996 175.953C64.1723 175.953 64.4738 175.86 64.704 175.674C64.9342 175.487 65.1479 175.175 65.3452 174.736L65.8549 173.585L66.0193 173.339L69.3407 165.578H71.3138L67.2032 175.065C66.9292 175.723 66.6222 176.244 66.2824 176.627C65.9536 177.011 65.5809 177.279 65.1643 177.433C64.7588 177.586 64.3093 177.663 63.8161 177.663ZM65.6247 174.671L61.6621 165.578H63.7996L67.0223 173.158L65.6247 174.671ZM83.6806 165.479C84.3821 165.479 85.0014 165.616 85.5385 165.89C86.0866 166.164 86.5141 166.586 86.8211 167.156C87.128 167.715 87.2814 168.439 87.2814 169.327V174.358H85.2261V169.59C85.2261 168.812 85.0562 168.231 84.7164 167.847C84.3766 167.463 83.8888 167.271 83.253 167.271C82.8036 167.271 82.4035 167.37 82.0528 167.567C81.7129 167.765 81.4444 168.055 81.2471 168.439C81.0607 168.823 80.9676 169.31 80.9676 169.902V174.358H78.9123V169.59C78.9123 168.812 78.7423 168.231 78.4025 167.847C78.0627 167.463 77.5749 167.271 76.9392 167.271C76.4897 167.271 76.0896 167.37 75.7389 167.567C75.3991 167.765 75.1305 168.055 74.9332 168.439C74.7468 168.823 74.6537 169.31 74.6537 169.902V174.358H72.5984V165.578H74.555V167.913L74.2097 167.222C74.5057 166.652 74.9332 166.219 75.4922 165.923C76.0622 165.627 76.709 165.479 77.4324 165.479C78.2546 165.479 78.9671 165.682 79.5699 166.088C80.1838 166.493 80.5894 167.107 80.7867 167.929L79.981 167.65C80.266 166.992 80.7374 166.466 81.3951 166.071C82.0528 165.677 82.8146 165.479 83.6806 165.479ZM89.9079 174.358V165.578H91.9632V174.358H89.9079ZM90.9437 164.131C90.5601 164.131 90.2422 164.01 89.9901 163.769C89.7489 163.528 89.6283 163.238 89.6283 162.898C89.6283 162.547 89.7489 162.257 89.9901 162.026C90.2422 161.785 90.5601 161.665 90.9437 161.665C91.3274 161.665 91.6398 161.78 91.8809 162.01C92.1331 162.229 92.2591 162.509 92.2591 162.848C92.2591 163.21 92.1385 163.517 91.8974 163.769C91.6562 164.01 91.3383 164.131 90.9437 164.131ZM98.3767 174.473C97.6313 174.473 96.9736 174.336 96.4036 174.062C95.8336 173.777 95.3897 173.35 95.0718 172.78C94.7539 172.199 94.595 171.47 94.595 170.593V165.578H96.6503V170.313C96.6503 171.103 96.8257 171.694 97.1764 172.089C97.5382 172.473 98.0479 172.665 98.7056 172.665C99.1879 172.665 99.6044 172.566 99.9552 172.369C100.317 172.171 100.596 171.875 100.794 171.481C101.002 171.086 101.106 170.598 101.106 170.017V165.578H103.161V174.358H101.205V171.99L101.55 172.714C101.254 173.284 100.821 173.722 100.251 174.029C99.6812 174.325 99.0563 174.473 98.3767 174.473ZM116.935 165.479C117.636 165.479 118.256 165.616 118.793 165.89C119.341 166.164 119.768 166.586 120.075 167.156C120.382 167.715 120.536 168.439 120.536 169.327V174.358H118.48V169.59C118.48 168.812 118.31 168.231 117.971 167.847C117.631 167.463 117.143 167.271 116.507 167.271C116.058 167.271 115.658 167.37 115.307 167.567C114.967 167.765 114.699 168.055 114.501 168.439C114.315 168.823 114.222 169.31 114.222 169.902V174.358H112.166V169.59C112.166 168.812 111.996 168.231 111.657 167.847C111.317 167.463 110.829 167.271 110.193 167.271C109.744 167.271 109.344 167.37 108.993 167.567C108.653 167.765 108.385 168.055 108.187 168.439C108.001 168.823 107.908 169.31 107.908 169.902V174.358H105.852V165.578H107.809V167.913L107.464 167.222C107.76 166.652 108.187 166.219 108.746 165.923C109.316 165.627 109.963 165.479 110.687 165.479C111.509 165.479 112.221 165.682 112.824 166.088C113.438 166.493 113.843 167.107 114.041 167.929L113.235 167.65C113.52 166.992 113.991 166.466 114.649 166.071C115.307 165.677 116.069 165.479 116.935 165.479Z" fill="#9C9C9C"></path><rect x="2.61682" y="2.15528" width="213.066" height="213.066" stroke="#0042FF" stroke-width="4.1106"></rect></svg> 