<?xml version="1.0" encoding="UTF-8"?> <svg xmlns="http://www.w3.org/2000/svg" width="179" height="180" viewBox="0 0 179 180" fill="none"><path d="M33.9585 47.7843C34.578 47.7155 35.6449 47.6122 37.1591 47.4746C38.7422 47.3369 40.4974 47.2337 42.4246 47.1648C44.4207 47.0272 46.4511 46.9239 48.516 46.8551C50.6497 46.7863 52.5425 46.7519 54.1945 46.7519C60.5956 46.7519 65.8955 47.6811 70.0941 49.5395C74.2927 51.3979 77.5965 53.979 80.0056 57.2828C82.4834 60.5178 84.2042 64.3722 85.1678 68.8462C86.1314 73.2513 86.6132 78.0693 86.6132 83.3004C86.6132 88.0496 86.1314 92.6956 85.1678 97.2384C84.2042 101.781 82.449 105.842 79.9023 109.421C77.4245 112.932 73.9486 115.788 69.4746 117.991C65.0695 120.124 59.3911 121.191 52.4393 121.191C51.338 121.191 49.927 121.157 48.2063 121.088C46.4855 121.019 44.7304 120.916 42.9408 120.778C41.1512 120.709 39.4305 120.606 37.7786 120.468C36.1267 120.4 34.8533 120.296 33.9585 120.159V47.7843ZM54.7107 59.3477C53.4029 59.3477 52.1296 59.4165 50.8906 59.5542C49.6517 59.623 48.7225 59.6918 48.103 59.7607V108.182C48.3784 108.251 48.7913 108.32 49.342 108.389C49.8926 108.389 50.4432 108.423 50.9939 108.492C51.6133 108.492 52.1984 108.526 52.749 108.595C53.2997 108.595 53.7471 108.595 54.0912 108.595C58.0833 108.595 61.2495 107.873 63.5897 106.427C65.9987 104.913 67.7883 102.951 68.9584 100.542C70.1285 98.1332 70.8856 95.4144 71.2298 92.3859C71.5739 89.3574 71.746 86.3289 71.746 83.3004C71.746 80.6849 71.5739 77.9661 71.2298 75.1441C70.9545 72.3221 70.2318 69.741 69.0617 67.4008C67.9604 65.0605 66.2741 63.1333 64.0027 61.6191C61.7313 60.1048 58.634 59.3477 54.7107 59.3477Z" fill="#0042FF"></path><path d="M121.779 105.498H125.703L135.717 68.4332H149.552L134.891 114.996C133.584 118.851 132.31 122.361 131.071 125.527C129.832 128.762 128.387 131.55 126.735 133.89C125.083 136.23 123.121 138.02 120.85 139.259C118.647 140.567 115.929 141.221 112.694 141.221C111.111 141.221 109.596 141.014 108.151 140.601C106.774 140.188 105.501 139.672 104.331 139.052C103.161 138.502 102.128 137.882 101.234 137.194C100.339 136.575 99.6161 135.989 99.0655 135.439L105.983 126.25C106.878 127.007 107.944 127.696 109.183 128.315C110.422 129.003 111.592 129.347 112.694 129.347C114.759 129.347 116.376 128.625 117.546 127.179C118.785 125.734 119.955 123.359 121.057 120.055H113.726L92.2513 68.4332H106.809L121.779 105.498Z" fill="#9C9C9C"></path><path d="M26.4215 27.7831C26.4215 28.5277 26.283 29.2462 26.006 29.9389C25.7462 30.6315 25.3566 31.2462 24.8372 31.783C24.3177 32.3197 23.677 32.7526 22.9152 33.0816C22.1533 33.4106 21.2702 33.5751 20.2659 33.5751C19.3309 33.5751 18.4824 33.4279 17.7205 33.1336C16.9586 32.8392 16.3007 32.4236 15.7466 31.8869C15.1925 31.3328 14.7596 30.6575 14.4479 29.8609C14.1535 29.0644 14.0064 28.1727 14.0064 27.1857C14.0064 25.5581 14.2401 24.017 14.7076 22.5625C15.1925 21.108 15.8591 19.8267 16.7076 18.7185C17.5733 17.6103 18.5949 16.7099 19.7724 16.0173C20.9672 15.3246 22.2745 14.9091 23.6943 14.7705L24.058 16.4328C22.9671 16.5713 21.9628 16.8917 21.0451 17.3938C20.1447 17.896 19.3568 18.5193 18.6815 19.2639C18.0062 20.0085 17.4521 20.8309 17.0192 21.7313C16.6037 22.6318 16.3353 23.5495 16.2141 24.4845C16.3526 24.2594 16.5517 24.0256 16.8115 23.7832C17.0885 23.5408 17.4088 23.333 17.7725 23.1599C18.1534 22.9694 18.569 22.8136 19.0192 22.6924C19.4867 22.5711 19.9888 22.5105 20.5256 22.5105C21.4433 22.5105 22.2658 22.6404 22.9931 22.9001C23.7203 23.1426 24.335 23.4975 24.8372 23.965C25.3566 24.4152 25.7462 24.9693 26.006 25.6273C26.283 26.268 26.4215 26.9866 26.4215 27.7831ZM24.2917 27.9909C24.2917 26.7788 23.9541 25.8524 23.2788 25.2118C22.6035 24.5711 21.5645 24.2507 20.162 24.2507C19.6598 24.2507 19.1923 24.3113 18.7594 24.4326C18.3266 24.5538 17.937 24.7183 17.5907 24.926C17.2443 25.1165 16.9413 25.3416 16.6816 25.6013C16.4219 25.8611 16.2227 26.1208 16.0842 26.3805C16.0496 26.623 16.0323 26.8134 16.0323 26.952C16.0323 27.0905 16.0323 27.255 16.0323 27.4454C16.0323 27.9649 16.1188 28.493 16.292 29.0298C16.4652 29.5493 16.7249 30.0168 17.0712 30.4324C17.4348 30.8479 17.885 31.1856 18.4218 31.4453C18.9586 31.705 19.5906 31.8349 20.3178 31.8349C20.9066 31.8349 21.4433 31.731 21.9282 31.5232C22.413 31.3154 22.8286 31.0384 23.1749 30.6921C23.5385 30.3458 23.8156 29.9389 24.006 29.4713C24.1965 29.0038 24.2917 28.5103 24.2917 27.9909ZM41.9953 27.7831C41.9953 28.5277 41.8567 29.2462 41.5797 29.9389C41.32 30.6315 40.9304 31.2462 40.4109 31.783C39.8914 32.3197 39.2508 32.7526 38.4889 33.0816C37.727 33.4106 36.8439 33.5751 35.8396 33.5751C34.9046 33.5751 34.0561 33.4279 33.2943 33.1336C32.5324 32.8392 31.8744 32.4236 31.3203 31.8869C30.7662 31.3328 30.3333 30.6575 30.0216 29.8609C29.7273 29.0644 29.5801 28.1727 29.5801 27.1857C29.5801 25.5581 29.8139 24.017 30.2814 22.5625C30.7662 21.108 31.4329 19.8267 32.2813 18.7185C33.1471 17.6103 34.1687 16.7099 35.3461 16.0173C36.5409 15.3246 37.8482 14.9091 39.2681 14.7705L39.6317 16.4328C38.5408 16.5713 37.5365 16.8917 36.6188 17.3938C35.7184 17.896 34.9306 18.5193 34.2553 19.2639C33.58 20.0085 33.0259 20.8309 32.593 21.7313C32.1774 22.6318 31.909 23.5495 31.7878 24.4845C31.9263 24.2594 32.1255 24.0256 32.3852 23.7832C32.6623 23.5408 32.9826 23.333 33.3462 23.1599C33.7272 22.9694 34.1427 22.8136 34.5929 22.6924C35.0604 22.5711 35.5626 22.5105 36.0994 22.5105C37.0171 22.5105 37.8396 22.6404 38.5668 22.9001C39.2941 23.1426 39.9088 23.4975 40.4109 23.965C40.9304 24.4152 41.32 24.9693 41.5797 25.6273C41.8567 26.268 41.9953 26.9866 41.9953 27.7831ZM39.8655 27.9909C39.8655 26.7788 39.5278 25.8524 38.8525 25.2118C38.1772 24.5711 37.1383 24.2507 35.7357 24.2507C35.2336 24.2507 34.7661 24.3113 34.3332 24.4326C33.9003 24.5538 33.5107 24.7183 33.1644 24.926C32.8181 25.1165 32.5151 25.3416 32.2553 25.6013C31.9956 25.8611 31.7965 26.1208 31.658 26.3805C31.6233 26.623 31.606 26.8134 31.606 26.952C31.606 27.0905 31.606 27.255 31.606 27.4454C31.606 27.9649 31.6926 28.493 31.8657 29.0298C32.0389 29.5493 32.2986 30.0168 32.6449 30.4324C33.0086 30.8479 33.4588 31.1856 33.9955 31.4453C34.5323 31.705 35.1643 31.8349 35.8916 31.8349C36.4803 31.8349 37.0171 31.731 37.5019 31.5232C37.9867 31.3154 38.4023 31.0384 38.7486 30.6921C39.1123 30.3458 39.3893 29.9389 39.5798 29.4713C39.7702 29.0038 39.8655 28.5103 39.8655 27.9909Z" fill="#9C9C9C"></path><path d="M14.5733 163.508H17.2327V154.598L14.5224 156.496L13.8618 155.53L17.5884 152.871H18.537V163.508H21.1456V164.728H14.5733V163.508ZM31.7089 161.154C31.7089 161.639 31.6186 162.108 31.4379 162.56C31.2685 163.011 31.0144 163.412 30.6756 163.762C30.3369 164.112 29.919 164.395 29.4221 164.609C28.9253 164.824 28.3493 164.931 27.6944 164.931C27.0846 164.931 26.5312 164.835 26.0343 164.643C25.5375 164.451 25.1083 164.18 24.747 163.83C24.3856 163.469 24.1033 163.028 23.9 162.509C23.7081 161.989 23.6121 161.408 23.6121 160.764C23.6121 159.703 23.7645 158.698 24.0694 157.749C24.3856 156.8 24.8204 155.965 25.3737 155.242C25.9384 154.519 26.6046 153.932 27.3725 153.48C28.1517 153.029 29.0043 152.758 29.9303 152.667L30.1675 153.751C29.456 153.842 28.8011 154.051 28.2025 154.378C27.6153 154.706 27.1015 155.112 26.6611 155.598C26.2207 156.083 25.8593 156.62 25.577 157.207C25.306 157.794 25.1309 158.393 25.0519 159.003C25.1422 158.856 25.2721 158.703 25.4415 158.545C25.6222 158.387 25.8311 158.252 26.0682 158.139C26.3167 158.014 26.5877 157.913 26.8813 157.834C27.1862 157.755 27.5137 157.715 27.8638 157.715C28.4623 157.715 28.9987 157.8 29.473 157.969C29.9473 158.127 30.3481 158.359 30.6756 158.664C31.0144 158.957 31.2685 159.319 31.4379 159.748C31.6186 160.166 31.7089 160.634 31.7089 161.154ZM30.3199 161.289C30.3199 160.499 30.0997 159.895 29.6593 159.477C29.2189 159.059 28.5413 158.85 27.6266 158.85C27.2991 158.85 26.9942 158.89 26.7119 158.969C26.4296 159.048 26.1755 159.155 25.9497 159.29C25.7238 159.415 25.5262 159.562 25.3568 159.731C25.1874 159.9 25.0575 160.07 24.9672 160.239C24.9446 160.397 24.9333 160.521 24.9333 160.612C24.9333 160.702 24.9333 160.809 24.9333 160.934C24.9333 161.272 24.9898 161.617 25.1027 161.967C25.2156 162.306 25.385 162.611 25.6109 162.882C25.848 163.153 26.1416 163.373 26.4917 163.542C26.8418 163.712 27.254 163.796 27.7282 163.796C28.1122 163.796 28.4623 163.729 28.7785 163.593C29.0947 163.457 29.3657 163.277 29.5915 163.051C29.8287 162.825 30.0094 162.56 30.1336 162.255C30.2578 161.95 30.3199 161.628 30.3199 161.289ZM41.2051 155.869C41.2051 156.908 40.7139 158.065 39.7314 159.341C38.7489 160.617 37.3769 162.006 35.6152 163.508H41.5777V164.728H34.0568V163.508C34.2714 163.305 34.565 163.04 34.9376 162.712C35.3103 162.385 35.7112 162.023 36.1403 161.628C36.5694 161.222 37.0042 160.787 37.4446 160.324C37.8963 159.861 38.3029 159.386 38.6642 158.901C39.0256 158.415 39.3192 157.93 39.5451 157.444C39.7709 156.959 39.8838 156.49 39.8838 156.038C39.8838 155.361 39.7032 154.83 39.3418 154.446C38.9917 154.051 38.461 153.853 37.7495 153.853C37.1397 153.853 36.6259 153.921 36.2081 154.056C35.7902 154.192 35.4119 154.389 35.0732 154.649L34.4972 153.718C35.0054 153.356 35.5418 153.091 36.1064 152.921C36.6824 152.752 37.3091 152.667 37.9867 152.667C39.0482 152.667 39.85 152.955 40.392 153.531C40.9341 154.107 41.2051 154.886 41.2051 155.869ZM46.8392 163.796C46.8392 163.435 46.9408 163.158 47.1441 162.966C47.3473 162.763 47.6184 162.661 47.9571 162.661C48.3185 162.661 48.6008 162.763 48.8041 162.966C49.0073 163.158 49.109 163.435 49.109 163.796C49.109 164.124 49.0073 164.395 48.8041 164.609C48.6008 164.824 48.3185 164.931 47.9571 164.931C47.6184 164.931 47.3473 164.824 47.1441 164.609C46.9408 164.395 46.8392 164.124 46.8392 163.796ZM57.3855 163.745C57.8147 163.745 58.2099 163.695 58.5713 163.593C58.9326 163.48 59.2375 163.316 59.486 163.102C59.7457 162.876 59.9433 162.599 60.0788 162.272C60.2257 161.944 60.2991 161.56 60.2991 161.12C60.2991 160.307 60.0054 159.691 59.4182 159.274C58.8423 158.844 58.0518 158.63 57.0468 158.63L55.4545 158.715V152.871H61.2646V154.09H56.7249V157.529L57.5719 157.495C58.8254 157.495 59.8135 157.8 60.5362 158.41C61.2589 159.019 61.6203 159.889 61.6203 161.018C61.6203 161.651 61.5074 162.21 61.2815 162.695C61.067 163.181 60.7677 163.593 60.3837 163.932C59.9998 164.259 59.5424 164.508 59.0117 164.677C58.4922 164.846 57.9219 164.931 57.3008 164.931C56.9621 164.931 56.6402 164.903 56.3353 164.846C56.0304 164.801 55.7538 164.745 55.5053 164.677C55.2569 164.598 55.0367 164.519 54.8447 164.44C54.664 164.35 54.5341 164.271 54.4551 164.203L54.9971 163.102C55.1891 163.215 55.4827 163.35 55.878 163.508C56.2732 163.666 56.7757 163.745 57.3855 163.745ZM64.1376 158.799C64.1376 157.839 64.2223 156.981 64.3917 156.225C64.5611 155.457 64.8152 154.813 65.1539 154.293C65.4927 153.763 65.9218 153.362 66.4413 153.091C66.9608 152.808 67.5762 152.667 68.2877 152.667C69.0443 152.667 69.6823 152.803 70.2018 153.074C70.7325 153.345 71.1616 153.74 71.4891 154.26C71.8166 154.779 72.0538 155.423 72.2006 156.191C72.3474 156.947 72.4208 157.817 72.4208 158.799C72.4208 159.759 72.3361 160.623 72.1667 161.391C71.9973 162.148 71.7432 162.791 71.4044 163.322C71.0656 163.841 70.6365 164.242 70.1171 164.525C69.5976 164.796 68.9822 164.931 68.2707 164.931C67.5254 164.931 66.8874 164.784 66.3566 164.491C65.8371 164.186 65.408 163.762 65.0692 163.22C64.7418 162.678 64.5046 162.035 64.3578 161.289C64.211 160.533 64.1376 159.703 64.1376 158.799ZM71.0318 158.799C71.0318 158.201 70.9979 157.63 70.9301 157.088L65.8993 161.679C66.0912 162.323 66.3792 162.836 66.7631 163.22C67.1471 163.604 67.6496 163.796 68.2707 163.796C69.2645 163.796 69.9703 163.384 70.3881 162.56C70.8172 161.735 71.0318 160.482 71.0318 158.799ZM65.5435 158.799C65.5435 159.082 65.5492 159.353 65.5605 159.612C65.5831 159.872 65.6056 160.126 65.6282 160.375L70.6761 155.801C70.4841 155.191 70.1961 154.706 69.8122 154.344C69.4395 153.983 68.9313 153.802 68.2877 153.802C67.2826 153.802 66.5712 154.22 66.1533 155.056C65.7468 155.88 65.5435 157.128 65.5435 158.799Z" fill="#9C9C9C"></path><path d="M14.2603 143.53V134.045H18.407C19.4369 134.045 20.3403 134.243 21.1172 134.641C21.8942 135.038 22.4995 135.589 22.9331 136.294C23.3667 136.999 23.5836 137.83 23.5836 138.787C23.5836 139.736 23.3667 140.567 22.9331 141.281C22.4995 141.986 21.8942 142.537 21.1172 142.934C20.3403 143.332 19.4369 143.53 18.407 143.53H14.2603ZM16.022 142.04H18.3257C19.0394 142.04 19.6537 141.904 20.1687 141.633C20.6926 141.362 21.0947 140.983 21.3747 140.495C21.6638 140.007 21.8083 139.438 21.8083 138.787C21.8083 138.128 21.6638 137.559 21.3747 137.08C21.0947 136.592 20.6926 136.213 20.1687 135.942C19.6537 135.671 19.0394 135.535 18.3257 135.535H16.022V142.04ZM25.8896 146.254C25.5373 146.254 25.1849 146.195 24.8326 146.078C24.4803 145.961 24.1867 145.798 23.9518 145.59L24.6293 144.343C24.801 144.497 24.9952 144.619 25.212 144.709C25.4289 144.8 25.6502 144.845 25.876 144.845C26.1832 144.845 26.4316 144.768 26.6214 144.614C26.8111 144.461 26.9872 144.203 27.1499 143.842L27.5699 142.893L27.7055 142.69L30.4428 136.294H32.0689L28.6811 144.113C28.4553 144.655 28.2023 145.084 27.9223 145.4C27.6512 145.717 27.3441 145.938 27.0008 146.064C26.6665 146.191 26.2961 146.254 25.8896 146.254ZM27.3802 143.788L24.1144 136.294H25.876L28.5321 142.541L27.3802 143.788ZM35.2709 143.625C34.6657 143.625 34.083 143.548 33.5228 143.395C32.9718 143.232 32.5336 143.038 32.2084 142.812L32.8588 141.525C33.1841 141.733 33.5725 141.904 34.0242 142.04C34.4759 142.175 34.9276 142.243 35.3794 142.243C35.9124 142.243 36.2963 142.171 36.5312 142.026C36.7751 141.882 36.8971 141.687 36.8971 141.444C36.8971 141.245 36.8158 141.096 36.6532 140.996C36.4906 140.888 36.2783 140.807 36.0163 140.752C35.7543 140.698 35.4607 140.649 35.1354 140.603C34.8192 140.558 34.4985 140.499 34.1733 140.427C33.8571 140.346 33.568 140.233 33.306 140.088C33.044 139.935 32.8317 139.732 32.6691 139.479C32.5065 139.226 32.4252 138.891 32.4252 138.476C32.4252 138.015 32.5562 137.618 32.8182 137.283C33.0802 136.94 33.4461 136.678 33.9158 136.497C34.3946 136.308 34.9593 136.213 35.6097 136.213C36.0976 136.213 36.5899 136.267 37.0868 136.375C37.5837 136.484 37.9947 136.637 38.32 136.836L37.6695 138.123C37.3262 137.916 36.9784 137.776 36.6261 137.703C36.2828 137.622 35.9395 137.581 35.5962 137.581C35.0812 137.581 34.6973 137.658 34.4443 137.812C34.2004 137.965 34.0784 138.16 34.0784 138.394C34.0784 138.611 34.1597 138.774 34.3224 138.882C34.485 138.991 34.6973 139.077 34.9593 139.14C35.2213 139.203 35.5104 139.257 35.8265 139.302C36.1518 139.339 36.4725 139.397 36.7887 139.479C37.1049 139.56 37.394 139.673 37.656 139.817C37.927 139.953 38.1438 140.147 38.3064 140.4C38.469 140.653 38.5503 140.983 38.5503 141.389C38.5503 141.841 38.4148 142.234 38.1438 142.568C37.8818 142.903 37.5069 143.165 37.0191 143.354C36.5312 143.535 35.9485 143.625 35.2709 143.625ZM44.0203 143.625C43.433 143.625 42.8955 143.49 42.4077 143.219C41.9289 142.948 41.5449 142.541 41.2558 141.999C40.9758 141.448 40.8357 140.752 40.8357 139.912C40.8357 139.063 40.9712 138.367 41.2423 137.825C41.5223 137.283 41.9018 136.881 42.3806 136.619C42.8594 136.348 43.4059 136.213 44.0203 136.213C44.734 136.213 45.3618 136.366 45.9039 136.673C46.455 136.981 46.8886 137.41 47.2048 137.961C47.53 138.512 47.6926 139.162 47.6926 139.912C47.6926 140.662 47.53 141.317 47.2048 141.877C46.8886 142.428 46.455 142.857 45.9039 143.165C45.3618 143.472 44.734 143.625 44.0203 143.625ZM40.0091 146.159V136.294H41.6217V138.002L41.5675 139.926L41.703 141.85V146.159H40.0091ZM43.8305 142.175C44.2371 142.175 44.5984 142.085 44.9146 141.904C45.2399 141.724 45.4973 141.462 45.6871 141.118C45.8768 140.775 45.9716 140.373 45.9716 139.912C45.9716 139.442 45.8768 139.04 45.6871 138.706C45.4973 138.363 45.2399 138.101 44.9146 137.92C44.5984 137.74 44.2371 137.649 43.8305 137.649C43.424 137.649 43.0581 137.74 42.7329 137.92C42.4077 138.101 42.1502 138.363 41.9605 138.706C41.7708 139.04 41.6759 139.442 41.6759 139.912C41.6759 140.373 41.7708 140.775 41.9605 141.118C42.1502 141.462 42.4077 141.724 42.7329 141.904C43.0581 142.085 43.424 142.175 43.8305 142.175ZM49.2991 143.53V136.294H50.9117V138.286L50.722 137.703C50.9388 137.216 51.2776 136.845 51.7383 136.592C52.2081 136.339 52.7908 136.213 53.4864 136.213V137.825C53.4141 137.807 53.3464 137.798 53.2832 137.798C53.2199 137.789 53.1567 137.785 53.0934 137.785C52.452 137.785 51.9416 137.974 51.5621 138.354C51.1827 138.724 50.993 139.28 50.993 140.021V143.53H49.2991ZM58.1095 143.625C57.3687 143.625 56.7092 143.467 56.131 143.151C55.5528 142.826 55.0966 142.383 54.7624 141.823C54.4281 141.263 54.261 140.626 54.261 139.912C54.261 139.189 54.4281 138.553 54.7624 138.002C55.0966 137.441 55.5528 137.003 56.131 136.687C56.7092 136.371 57.3687 136.213 58.1095 136.213C58.8593 136.213 59.5233 136.371 60.1015 136.687C60.6887 137.003 61.145 137.437 61.4702 137.988C61.8045 138.539 61.9716 139.18 61.9716 139.912C61.9716 140.626 61.8045 141.263 61.4702 141.823C61.145 142.383 60.6887 142.826 60.1015 143.151C59.5233 143.467 58.8593 143.625 58.1095 143.625ZM58.1095 142.175C58.5251 142.175 58.8955 142.085 59.2207 141.904C59.5459 141.724 59.7989 141.462 59.9796 141.118C60.1693 140.775 60.2641 140.373 60.2641 139.912C60.2641 139.442 60.1693 139.04 59.9796 138.706C59.7989 138.363 59.5459 138.101 59.2207 137.92C58.8955 137.74 58.5296 137.649 58.1231 137.649C57.7075 137.649 57.3371 137.74 57.0119 137.92C56.6957 138.101 56.4427 138.363 56.253 138.706C56.0633 139.04 55.9684 139.442 55.9684 139.912C55.9684 140.373 56.0633 140.775 56.253 141.118C56.4427 141.462 56.6957 141.724 57.0119 141.904C57.3371 142.085 57.703 142.175 58.1095 142.175ZM65.8273 143.625C65.222 143.625 64.6393 143.548 64.0792 143.395C63.5281 143.232 63.09 143.038 62.7648 142.812L63.4152 141.525C63.7404 141.733 64.1289 141.904 64.5806 142.04C65.0323 142.175 65.484 142.243 65.9357 142.243C66.4688 142.243 66.8527 142.171 67.0876 142.026C67.3315 141.882 67.4535 141.687 67.4535 141.444C67.4535 141.245 67.3722 141.096 67.2096 140.996C67.0469 140.888 66.8346 140.807 66.5727 140.752C66.3107 140.698 66.0171 140.649 65.6918 140.603C65.3756 140.558 65.0549 140.499 64.7297 140.427C64.4135 140.346 64.1244 140.233 63.8624 140.088C63.6004 139.935 63.3881 139.732 63.2255 139.479C63.0629 139.226 62.9816 138.891 62.9816 138.476C62.9816 138.015 63.1126 137.618 63.3746 137.283C63.6366 136.94 64.0024 136.678 64.4722 136.497C64.951 136.308 65.5157 136.213 66.1661 136.213C66.654 136.213 67.1463 136.267 67.6432 136.375C68.1401 136.484 68.5511 136.637 68.8764 136.836L68.2259 138.123C67.8826 137.916 67.5348 137.776 67.1825 137.703C66.8392 137.622 66.4959 137.581 66.1526 137.581C65.6376 137.581 65.2537 137.658 65.0007 137.812C64.7568 137.965 64.6348 138.16 64.6348 138.394C64.6348 138.611 64.7161 138.774 64.8788 138.882C65.0414 138.991 65.2537 139.077 65.5157 139.14C65.7776 139.203 66.0667 139.257 66.3829 139.302C66.7082 139.339 67.0289 139.397 67.3451 139.479C67.6613 139.56 67.9504 139.673 68.2123 139.817C68.4834 139.953 68.7002 140.147 68.8628 140.4C69.0254 140.653 69.1067 140.983 69.1067 141.389C69.1067 141.841 68.9712 142.234 68.7002 142.568C68.4382 142.903 68.0633 143.165 67.5754 143.354C67.0876 143.535 66.5049 143.625 65.8273 143.625ZM70.5655 143.53V136.294H72.2594V143.53H70.5655ZM71.4192 135.102C71.103 135.102 70.841 135.002 70.6333 134.803C70.4345 134.605 70.3351 134.365 70.3351 134.085C70.3351 133.796 70.4345 133.557 70.6333 133.367C70.841 133.168 71.103 133.069 71.4192 133.069C71.7354 133.069 71.9929 133.164 72.1916 133.353C72.3994 133.534 72.5033 133.764 72.5033 134.045C72.5033 134.343 72.4039 134.596 72.2052 134.803C72.0064 135.002 71.7445 135.102 71.4192 135.102ZM77.5452 143.625C76.9309 143.625 76.3888 143.512 75.9191 143.286C75.4493 143.052 75.0834 142.699 74.8214 142.229C74.5594 141.751 74.4284 141.15 74.4284 140.427V136.294H76.1223V140.197C76.1223 140.847 76.2669 141.335 76.556 141.66C76.8541 141.977 77.2742 142.135 77.8162 142.135C78.2137 142.135 78.557 142.053 78.8461 141.891C79.1443 141.728 79.3746 141.484 79.5372 141.159C79.7089 140.834 79.7947 140.432 79.7947 139.953V136.294H81.4886V143.53H79.876V141.579L80.1606 142.175C79.9167 142.645 79.5598 143.006 79.0901 143.259C78.6203 143.503 78.1053 143.625 77.5452 143.625ZM92.84 136.213C93.4182 136.213 93.9286 136.326 94.3713 136.552C94.823 136.777 95.1753 137.125 95.4283 137.595C95.6812 138.056 95.8077 138.652 95.8077 139.384V143.53H94.1138V139.601C94.1138 138.959 93.9738 138.48 93.6937 138.164C93.4136 137.848 93.0116 137.69 92.4876 137.69C92.1172 137.69 91.7875 137.771 91.4984 137.934C91.2183 138.096 90.997 138.336 90.8344 138.652C90.6808 138.968 90.604 139.37 90.604 139.858V143.53H88.9101V139.601C88.9101 138.959 88.7701 138.48 88.49 138.164C88.21 137.848 87.808 137.69 87.284 137.69C86.9136 137.69 86.5838 137.771 86.2947 137.934C86.0147 138.096 85.7933 138.336 85.6307 138.652C85.4772 138.968 85.4004 139.37 85.4004 139.858V143.53H83.7065V136.294H85.3191V138.218L85.0345 137.649C85.2784 137.179 85.6307 136.823 86.0915 136.579C86.5612 136.335 87.0943 136.213 87.6905 136.213C88.3681 136.213 88.9553 136.38 89.4522 136.714C89.9581 137.048 90.2923 137.554 90.455 138.232L89.791 138.002C90.0258 137.459 90.4143 137.026 90.9564 136.701C91.4984 136.375 92.1263 136.213 92.84 136.213Z" fill="#9C9C9C"></path><rect x="1.6939" y="1.79388" width="175.601" height="175.601" stroke="#0042FF" stroke-width="3.3878"></rect></svg> 