<?xml version="1.0" encoding="UTF-8"?> <svg xmlns="http://www.w3.org/2000/svg" width="180" height="180" viewBox="0 0 180 180" fill="none"><path d="M79.388 93.4184L56.0548 47.7843H72.8836L86.8216 77.622H87.3378L101.586 47.7843H116.763L93.5325 93.3151V120.055H79.388V93.4184Z" fill="#0042FF"></path><path d="M19.4918 31.783C20.1844 31.783 20.8164 31.6964 21.3878 31.5232C21.9765 31.3328 22.4873 31.073 22.9202 30.744C23.3531 30.415 23.6907 30.0168 23.9332 29.5493C24.1756 29.0818 24.2968 28.5623 24.2968 27.9909C24.2968 26.7961 23.8726 25.9477 23.0241 25.4455C22.193 24.926 21.0675 24.6663 19.6476 24.6663H17.9853V23.4196L23.102 16.9523H15.3361V15.0822H25.5954V16.9523L20.4787 22.9521H20.8943C21.6908 22.9521 22.4181 23.0646 23.0761 23.2897C23.734 23.5148 24.3054 23.8352 24.7903 24.2507C25.2751 24.6663 25.6474 25.1685 25.9071 25.7572C26.1842 26.3459 26.3227 27.0126 26.3227 27.7571C26.3227 28.6922 26.1409 29.5233 25.7773 30.2505C25.4136 30.9778 24.9201 31.5925 24.2968 32.0946C23.6734 32.5795 22.9375 32.9517 22.0891 33.2115C21.2579 33.4539 20.3662 33.5751 19.4138 33.5751C18.5307 33.5751 17.7602 33.5058 17.1022 33.3673C16.4616 33.2461 15.8728 33.0903 15.3361 32.8998L15.8555 31.0817C16.3057 31.2895 16.8338 31.4626 17.4399 31.6011C18.0459 31.7224 18.7299 31.783 19.4918 31.783ZM30.2085 20.5626C30.2085 19.766 30.3384 19.0215 30.5981 18.3289C30.8579 17.6189 31.2474 17.0042 31.7669 16.4848C32.3037 15.948 32.9617 15.5324 33.7409 15.2381C34.5201 14.9264 35.4291 14.7705 36.4681 14.7705C37.4377 14.7705 38.3035 14.9264 39.0654 15.2381C39.8272 15.5497 40.4679 15.9913 40.9874 16.5627C41.5242 17.1168 41.9311 17.8007 42.2081 18.6146C42.4852 19.4111 42.6237 20.3028 42.6237 21.2898C42.6237 23.2291 42.3813 24.9347 41.8964 26.4065C41.4116 27.8783 40.7363 29.125 39.8705 30.1466C39.0048 31.1683 37.9745 31.9648 36.7797 32.5362C35.6023 33.1076 34.3209 33.4539 32.9357 33.5751L32.5461 31.9388C33.6889 31.8176 34.7105 31.5405 35.6109 31.1077C36.5113 30.6748 37.2905 30.1207 37.9485 29.4454C38.6065 28.7701 39.1433 27.9909 39.5589 27.1078C39.9744 26.2247 40.2601 25.281 40.416 24.2767C40.1389 24.5711 39.8532 24.8222 39.5589 25.0299C39.2818 25.2204 38.9701 25.3762 38.6238 25.4975C38.2775 25.6187 37.8966 25.7052 37.481 25.7572C37.0654 25.8091 36.5893 25.8351 36.0525 25.8351C35.256 25.8351 34.5027 25.7139 33.7928 25.4715C33.0829 25.2291 32.4595 24.8828 31.9228 24.4326C31.4033 23.965 30.9877 23.4109 30.676 22.7703C30.3644 22.1123 30.2085 21.3764 30.2085 20.5626ZM32.3383 20.3548C32.3383 21.6015 32.7106 22.5365 33.4552 23.1599C34.217 23.7832 35.2213 24.0949 36.4681 24.0949C37.455 24.0949 38.3035 23.9477 39.0134 23.6534C39.7407 23.3417 40.2515 22.9607 40.5458 22.5105C40.5805 22.2681 40.5978 22.0777 40.5978 21.9391C40.5978 21.7833 40.5978 21.6101 40.5978 21.4197C40.5978 20.8136 40.5112 20.2162 40.3381 19.6275C40.1822 19.0388 39.9311 18.5107 39.5848 18.0432C39.2385 17.5756 38.7883 17.2034 38.2342 16.9263C37.6974 16.632 37.0481 16.4848 36.2862 16.4848C35.0395 16.4848 34.0699 16.8224 33.3772 17.4977C32.6846 18.173 32.3383 19.1254 32.3383 20.3548Z" fill="#9C9C9C"></path><path d="M14.3208 161.848C14.3208 160.482 15.1509 159.381 16.8109 158.545C16.4947 158.376 16.2011 158.201 15.93 158.02C15.659 157.839 15.4219 157.636 15.2186 157.41C15.0266 157.184 14.8742 156.925 14.7613 156.631C14.6483 156.337 14.5919 155.999 14.5919 155.615C14.5919 155.197 14.6766 154.807 14.846 154.446C15.0153 154.085 15.2581 153.774 15.5743 153.514C15.8905 153.255 16.2745 153.051 16.7262 152.904C17.1779 152.746 17.6804 152.667 18.2338 152.667C18.7532 152.667 19.2219 152.735 19.6397 152.871C20.0688 153.006 20.4302 153.198 20.7238 153.447C21.0287 153.684 21.2602 153.966 21.4183 154.293C21.5764 154.621 21.6554 154.971 21.6554 155.344C21.6554 155.987 21.4917 156.58 21.1642 157.122C20.848 157.653 20.3342 158.139 19.6228 158.579C19.9502 158.748 20.2551 158.929 20.5375 159.121C20.8198 159.313 21.0626 159.528 21.2658 159.765C21.4804 160.002 21.6441 160.273 21.7571 160.578C21.8813 160.871 21.9434 161.21 21.9434 161.594C21.9434 162.068 21.8587 162.515 21.6893 162.932C21.5199 163.339 21.2658 163.689 20.9271 163.983C20.5996 164.276 20.193 164.508 19.7074 164.677C19.2219 164.846 18.6572 164.931 18.0135 164.931C17.415 164.931 16.8843 164.846 16.4213 164.677C15.9583 164.508 15.5687 164.282 15.2525 164C14.9476 163.717 14.7161 163.39 14.558 163.017C14.3999 162.644 14.3208 162.255 14.3208 161.848ZM20.6052 161.679C20.6052 161.351 20.5262 161.063 20.3681 160.815C20.2213 160.555 20.018 160.324 19.7583 160.12C19.5098 159.917 19.2219 159.731 18.8944 159.562C18.5669 159.392 18.2281 159.223 17.878 159.053C17.065 159.449 16.4834 159.883 16.1333 160.358C15.7945 160.832 15.6251 161.278 15.6251 161.696C15.6251 161.978 15.676 162.249 15.7776 162.509C15.8905 162.757 16.0486 162.978 16.2519 163.17C16.4664 163.361 16.7262 163.514 17.0311 163.627C17.3473 163.74 17.7086 163.796 18.1152 163.796C18.4427 163.796 18.7532 163.751 19.0468 163.661C19.3517 163.57 19.6171 163.441 19.843 163.271C20.0801 163.09 20.2664 162.87 20.4019 162.611C20.5375 162.34 20.6052 162.029 20.6052 161.679ZM15.9131 155.564C15.9131 155.88 15.9865 156.162 16.1333 156.411C16.2801 156.659 16.4721 156.885 16.7092 157.088C16.9577 157.28 17.24 157.461 17.5562 157.63C17.8724 157.789 18.2055 157.947 18.5556 158.105C19.1541 157.71 19.6002 157.314 19.8938 156.919C20.1987 156.524 20.3511 156.089 20.3511 155.615C20.3511 155.332 20.289 155.084 20.1648 154.869C20.0519 154.644 19.8938 154.452 19.6905 154.293C19.4985 154.135 19.2727 154.017 19.0129 153.938C18.7532 153.847 18.4822 153.802 18.1999 153.802C17.8385 153.802 17.5167 153.853 17.2344 153.955C16.952 154.056 16.7149 154.192 16.5229 154.361C16.3309 154.531 16.1785 154.723 16.0656 154.937C15.9639 155.14 15.9131 155.349 15.9131 155.564ZM24.4776 161.848C24.4776 160.482 25.3076 159.381 26.9677 158.545C26.6515 158.376 26.3579 158.201 26.0868 158.02C25.8158 157.839 25.5787 157.636 25.3754 157.41C25.1834 157.184 25.031 156.925 24.918 156.631C24.8051 156.337 24.7487 155.999 24.7487 155.615C24.7487 155.197 24.8333 154.807 25.0027 154.446C25.1721 154.085 25.4149 153.774 25.7311 153.514C26.0473 153.255 26.4313 153.051 26.883 152.904C27.3347 152.746 27.8372 152.667 28.3905 152.667C28.91 152.667 29.3787 152.735 29.7965 152.871C30.2256 153.006 30.587 153.198 30.8806 153.447C31.1855 153.684 31.417 153.966 31.5751 154.293C31.7332 154.621 31.8122 154.971 31.8122 155.344C31.8122 155.987 31.6485 156.58 31.321 157.122C31.0048 157.653 30.491 158.139 29.7795 158.579C30.107 158.748 30.4119 158.929 30.6942 159.121C30.9766 159.313 31.2194 159.528 31.4226 159.765C31.6372 160.002 31.8009 160.273 31.9139 160.578C32.0381 160.871 32.1002 161.21 32.1002 161.594C32.1002 162.068 32.0155 162.515 31.8461 162.932C31.6767 163.339 31.4226 163.689 31.0838 163.983C30.7564 164.276 30.3498 164.508 29.8642 164.677C29.3787 164.846 28.814 164.931 28.1703 164.931C27.5718 164.931 27.0411 164.846 26.5781 164.677C26.1151 164.508 25.7255 164.282 25.4093 164C25.1044 163.717 24.8729 163.39 24.7148 163.017C24.5567 162.644 24.4776 162.255 24.4776 161.848ZM30.762 161.679C30.762 161.351 30.683 161.063 30.5249 160.815C30.3781 160.555 30.1748 160.324 29.9151 160.12C29.6666 159.917 29.3787 159.731 29.0512 159.562C28.7237 159.392 28.3849 159.223 28.0348 159.053C27.2218 159.449 26.6402 159.883 26.2901 160.358C25.9513 160.832 25.7819 161.278 25.7819 161.696C25.7819 161.978 25.8328 162.249 25.9344 162.509C26.0473 162.757 26.2054 162.978 26.4087 163.17C26.6232 163.361 26.883 163.514 27.1879 163.627C27.5041 163.74 27.8654 163.796 28.272 163.796C28.5995 163.796 28.91 163.751 29.2036 163.661C29.5085 163.57 29.7739 163.441 29.9997 163.271C30.2369 163.09 30.4232 162.87 30.5587 162.611C30.6942 162.34 30.762 162.029 30.762 161.679ZM26.0699 155.564C26.0699 155.88 26.1433 156.162 26.2901 156.411C26.4369 156.659 26.6289 156.885 26.866 157.088C27.1145 157.28 27.3968 157.461 27.713 157.63C28.0292 157.789 28.3623 157.947 28.7124 158.105C29.3109 157.71 29.757 157.314 30.0506 156.919C30.3555 156.524 30.5079 156.089 30.5079 155.615C30.5079 155.332 30.4458 155.084 30.3216 154.869C30.2087 154.644 30.0506 154.452 29.8473 154.293C29.6553 154.135 29.4295 154.017 29.1697 153.938C28.91 153.847 28.639 153.802 28.3567 153.802C27.9953 153.802 27.6735 153.853 27.3911 153.955C27.1088 154.056 26.8717 154.192 26.6797 154.361C26.4877 154.531 26.3353 154.723 26.2223 154.937C26.1207 155.14 26.0699 155.349 26.0699 155.564ZM37.3108 163.796C37.3108 163.435 37.4124 163.158 37.6157 162.966C37.819 162.763 38.09 162.661 38.4288 162.661C38.7901 162.661 39.0724 162.763 39.2757 162.966C39.479 163.158 39.5806 163.435 39.5806 163.796C39.5806 164.124 39.479 164.395 39.2757 164.609C39.0724 164.824 38.7901 164.931 38.4288 164.931C38.09 164.931 37.819 164.824 37.6157 164.609C37.4124 164.395 37.3108 164.124 37.3108 163.796ZM44.5541 156.445C44.5541 155.925 44.6388 155.44 44.8081 154.988C44.9775 154.525 45.2316 154.124 45.5704 153.785C45.9205 153.435 46.3496 153.164 46.8578 152.972C47.3659 152.769 47.9588 152.667 48.6364 152.667C49.2688 152.667 49.8334 152.769 50.3303 152.972C50.8271 153.175 51.245 153.463 51.5838 153.836C51.9338 154.197 52.1992 154.644 52.3799 155.174C52.5606 155.694 52.6509 156.275 52.6509 156.919C52.6509 158.184 52.4928 159.296 52.1766 160.256C51.8604 161.216 51.42 162.029 50.8554 162.695C50.2907 163.361 49.6188 163.881 48.8396 164.254C48.0717 164.626 47.2361 164.852 46.3327 164.931L46.0786 163.864C46.8239 163.785 47.4902 163.604 48.0774 163.322C48.6646 163.04 49.1728 162.678 49.6019 162.238C50.031 161.797 50.3811 161.289 50.6521 160.713C50.9231 160.137 51.1095 159.522 51.2111 158.867C51.0304 159.059 50.8441 159.223 50.6521 159.358C50.4714 159.482 50.2682 159.584 50.0423 159.663C49.8165 159.742 49.568 159.799 49.297 159.833C49.026 159.866 48.7154 159.883 48.3653 159.883C47.8459 159.883 47.3546 159.804 46.8916 159.646C46.4286 159.488 46.0221 159.262 45.672 158.969C45.3333 158.664 45.0622 158.302 44.859 157.885C44.6557 157.455 44.5541 156.975 44.5541 156.445ZM45.9431 156.309C45.9431 157.122 46.1859 157.732 46.6714 158.139C47.1683 158.545 47.8233 158.748 48.6364 158.748C49.28 158.748 49.8334 158.652 50.2964 158.46C50.7707 158.257 51.1038 158.009 51.2958 157.715C51.3184 157.557 51.3297 157.433 51.3297 157.342C51.3297 157.241 51.3297 157.128 51.3297 157.004C51.3297 156.608 51.2732 156.219 51.1603 155.835C51.0586 155.451 50.8949 155.107 50.669 154.802C50.4432 154.497 50.1496 154.254 49.7882 154.073C49.4381 153.881 49.0147 153.785 48.5178 153.785C47.7047 153.785 47.0723 154.006 46.6206 154.446C46.1689 154.886 45.9431 155.507 45.9431 156.309ZM54.6092 158.799C54.6092 157.839 54.6939 156.981 54.8633 156.225C55.0327 155.457 55.2868 154.813 55.6256 154.293C55.9643 153.763 56.3935 153.362 56.9129 153.091C57.4324 152.808 58.0478 152.667 58.7593 152.667C59.5159 152.667 60.1539 152.803 60.6734 153.074C61.2041 153.345 61.6333 153.74 61.9608 154.26C62.2882 154.779 62.5254 155.423 62.6722 156.191C62.819 156.947 62.8924 157.817 62.8924 158.799C62.8924 159.759 62.8077 160.623 62.6383 161.391C62.4689 162.148 62.2148 162.791 61.8761 163.322C61.5373 163.841 61.1082 164.242 60.5887 164.525C60.0692 164.796 59.4538 164.931 58.7423 164.931C57.997 164.931 57.359 164.784 56.8282 164.491C56.3088 164.186 55.8796 163.762 55.5409 163.22C55.2134 162.678 54.9762 162.035 54.8294 161.289C54.6826 160.533 54.6092 159.703 54.6092 158.799ZM61.5034 158.799C61.5034 158.201 61.4695 157.63 61.4018 157.088L56.3709 161.679C56.5629 162.323 56.8508 162.836 57.2348 163.22C57.6187 163.604 58.1212 163.796 58.7423 163.796C59.7361 163.796 60.4419 163.384 60.8597 162.56C61.2888 161.735 61.5034 160.482 61.5034 158.799ZM56.0152 158.799C56.0152 159.082 56.0208 159.353 56.0321 159.612C56.0547 159.872 56.0773 160.126 56.0999 160.375L61.1477 155.801C60.9557 155.191 60.6677 154.706 60.2838 154.344C59.9111 153.983 59.403 153.802 58.7593 153.802C57.7542 153.802 57.0428 154.22 56.625 155.056C56.2184 155.88 56.0152 157.128 56.0152 158.799ZM72.9645 161.154C72.9645 161.639 72.8742 162.108 72.6935 162.56C72.5241 163.011 72.27 163.412 71.9312 163.762C71.5924 164.112 71.1746 164.395 70.6777 164.609C70.1808 164.824 69.6049 164.931 68.9499 164.931C68.3401 164.931 67.7868 164.835 67.2899 164.643C66.793 164.451 66.3639 164.18 66.0026 163.83C65.6412 163.469 65.3589 163.028 65.1556 162.509C64.9636 161.989 64.8676 161.408 64.8676 160.764C64.8676 159.703 65.0201 158.698 65.325 157.749C65.6412 156.8 66.076 155.965 66.6293 155.242C67.1939 154.519 67.8602 153.932 68.6281 153.48C69.4073 153.029 70.2599 152.758 71.1859 152.667L71.423 153.751C70.7116 153.842 70.0566 154.051 69.4581 154.378C68.8709 154.706 68.3571 155.112 67.9167 155.598C67.4763 156.083 67.1149 156.62 66.8326 157.207C66.5615 157.794 66.3865 158.393 66.3075 159.003C66.3978 158.856 66.5277 158.703 66.6971 158.545C66.8777 158.387 67.0867 158.252 67.3238 158.139C67.5722 158.014 67.8433 157.913 68.1369 157.834C68.4418 157.755 68.7693 157.715 69.1193 157.715C69.7178 157.715 70.2543 157.8 70.7285 157.969C71.2028 158.127 71.6037 158.359 71.9312 158.664C72.27 158.957 72.5241 159.319 72.6935 159.748C72.8742 160.166 72.9645 160.634 72.9645 161.154ZM71.5755 161.289C71.5755 160.499 71.3553 159.895 70.9149 159.477C70.4745 159.059 69.7969 158.85 68.8822 158.85C68.5547 158.85 68.2498 158.89 67.9675 158.969C67.6852 159.048 67.4311 159.155 67.2052 159.29C66.9794 159.415 66.7818 159.562 66.6124 159.731C66.443 159.9 66.3131 160.07 66.2228 160.239C66.2002 160.397 66.1889 160.521 66.1889 160.612C66.1889 160.702 66.1889 160.809 66.1889 160.934C66.1889 161.272 66.2454 161.617 66.3583 161.967C66.4712 162.306 66.6406 162.611 66.8664 162.882C67.1036 163.153 67.3972 163.373 67.7473 163.542C68.0974 163.712 68.5095 163.796 68.9838 163.796C69.3678 163.796 69.7178 163.729 70.034 163.593C70.3502 163.457 70.6213 163.277 70.8471 163.051C71.0843 162.825 71.2649 162.56 71.3892 162.255C71.5134 161.95 71.5755 161.628 71.5755 161.289Z" fill="#9C9C9C"></path><path d="M17.2196 143.53V139.777L17.6126 140.861L13.493 134.045H15.3766L18.6831 139.533H17.6261L20.9597 134.045H22.6943L18.5747 140.861L18.9813 139.777V143.53H17.2196ZM26.1445 143.625C25.3495 143.625 24.7351 143.422 24.3015 143.015C23.8679 142.6 23.651 141.99 23.651 141.186V134.695H25.3449V141.145C25.3449 141.489 25.4308 141.755 25.6024 141.945C25.7831 142.135 26.0315 142.229 26.3477 142.229C26.7272 142.229 27.0434 142.13 27.2963 141.931L27.7706 143.137C27.5719 143.3 27.3279 143.422 27.0388 143.503C26.7497 143.585 26.4516 143.625 26.1445 143.625ZM22.4585 137.703V136.348H27.2828V137.703H22.4585ZM31.7158 143.625C30.9208 143.625 30.3065 143.422 29.8728 143.015C29.4392 142.6 29.2224 141.99 29.2224 141.186V134.695H30.9163V141.145C30.9163 141.489 31.0021 141.755 31.1738 141.945C31.3544 142.135 31.6029 142.229 31.9191 142.229C32.2985 142.229 32.6147 142.13 32.8677 141.931L33.342 143.137C33.1432 143.3 32.8993 143.422 32.6102 143.503C32.3211 143.585 32.023 143.625 31.7158 143.625ZM28.0299 137.703V136.348H32.8541V137.703H28.0299ZM34.7354 143.53V136.294H36.348V138.286L36.1583 137.703C36.3751 137.216 36.7139 136.845 37.1746 136.592C37.6444 136.339 38.2271 136.213 38.9227 136.213V137.825C38.8504 137.807 38.7827 137.798 38.7195 137.798C38.6562 137.789 38.593 137.785 38.5297 137.785C37.8883 137.785 37.3779 137.974 36.9985 138.354C36.619 138.724 36.4293 139.28 36.4293 140.021V143.53H34.7354ZM40.3597 143.53V136.294H42.0536V143.53H40.3597ZM41.2134 135.102C40.8972 135.102 40.6352 135.002 40.4274 134.803C40.2287 134.605 40.1293 134.365 40.1293 134.085C40.1293 133.796 40.2287 133.557 40.4274 133.367C40.6352 133.168 40.8972 133.069 41.2134 133.069C41.5296 133.069 41.7871 133.164 41.9858 133.353C42.1936 133.534 42.2975 133.764 42.2975 134.045C42.2975 134.343 42.1981 134.596 41.9994 134.803C41.8006 135.002 41.5386 135.102 41.2134 135.102ZM47.3394 143.625C46.7251 143.625 46.183 143.512 45.7133 143.286C45.2435 143.052 44.8776 142.699 44.6156 142.229C44.3536 141.751 44.2226 141.15 44.2226 140.427V136.294H45.9165V140.197C45.9165 140.847 46.0611 141.335 46.3502 141.66C46.6483 141.977 47.0684 142.135 47.6104 142.135C48.0079 142.135 48.3512 142.053 48.6403 141.891C48.9384 141.728 49.1688 141.484 49.3314 141.159C49.5031 140.834 49.5889 140.432 49.5889 139.953V136.294H51.2828V143.53H49.6702V141.579L49.9548 142.175C49.7109 142.645 49.354 143.006 48.8842 143.259C48.4145 143.503 47.8995 143.625 47.3394 143.625ZM62.6342 136.213C63.2123 136.213 63.7228 136.326 64.1654 136.552C64.6172 136.777 64.9695 137.125 65.2224 137.595C65.4754 138.056 65.6019 138.652 65.6019 139.384V143.53H63.908V139.601C63.908 138.959 63.7679 138.48 63.4879 138.164C63.2078 137.848 62.8058 137.69 62.2818 137.69C61.9114 137.69 61.5817 137.771 61.2926 137.934C61.0125 138.096 60.7912 138.336 60.6286 138.652C60.475 138.968 60.3982 139.37 60.3982 139.858V143.53H58.7043V139.601C58.7043 138.959 58.5643 138.48 58.2842 138.164C58.0042 137.848 57.6021 137.69 57.0782 137.69C56.7078 137.69 56.378 137.771 56.0889 137.934C55.8089 138.096 55.5875 138.336 55.4249 138.652C55.2713 138.968 55.1945 139.37 55.1945 139.858V143.53H53.5006V136.294H55.1132V138.218L54.8287 137.649C55.0726 137.179 55.4249 136.823 55.8857 136.579C56.3554 136.335 56.8884 136.213 57.4847 136.213C58.1623 136.213 58.7495 136.38 59.2464 136.714C59.7523 137.048 60.0865 137.554 60.2491 138.232L59.5851 138.002C59.82 137.459 60.2085 137.026 60.7505 136.701C61.2926 136.375 61.9205 136.213 62.6342 136.213Z" fill="#9C9C9C"></path><rect x="2.32232" y="1.79388" width="175.601" height="175.601" stroke="#0042FF" stroke-width="3.3878"></rect></svg> 